<svg width="22" height="22" viewBox="0 0 22 22" fill="none" xmlns="http://www.w3.org/2000/svg">
<path d="M11.9168 7.33334C11.9168 6.82708 11.5064 6.41667 11.0002 6.41667C10.4939 6.41667 10.0835 6.82708 10.0835 7.33334C10.0835 7.8396 10.4939 8.25 11.0002 8.25C11.5064 8.25 11.9168 7.8396 11.9168 7.33334Z" fill="#030303"/>
<path d="M11.0002 16.2708C11.3799 16.2708 11.6877 15.963 11.6877 15.5833V10.0833C11.6877 9.70364 11.3799 9.39584 11.0002 9.39584C10.6205 9.39584 10.3127 9.70364 10.3127 10.0833V15.5833C10.3127 15.963 10.6205 16.2708 11.0002 16.2708Z" fill="#030303"/>
<path fill-rule="evenodd" clip-rule="evenodd" d="M11.0528 1.14584H10.9476C8.83155 1.14582 7.17325 1.14582 5.87939 1.31977C4.55505 1.49782 3.51003 1.86939 2.68979 2.68963C1.86955 3.50987 1.49798 4.55489 1.31993 5.87923C1.14598 7.17309 1.14598 8.83137 1.146 10.9474V11.0526C1.14598 13.1686 1.14598 14.8269 1.31993 16.1208C1.49798 17.4451 1.86955 18.4901 2.68979 19.3104C3.51003 20.1306 4.55505 20.5022 5.87939 20.6802C7.17326 20.8542 8.83154 20.8542 10.9476 20.8542H11.0528C13.1688 20.8542 14.8271 20.8542 16.1209 20.6802C17.4453 20.5022 18.4903 20.1306 19.3105 19.3104C20.1308 18.4901 20.5023 17.4451 20.6804 16.1208C20.8544 14.8269 20.8543 13.1686 20.8543 11.0526V10.9474C20.8543 8.83138 20.8544 7.1731 20.6804 5.87923C20.5023 4.55489 20.1308 3.50987 19.3105 2.68963C18.4903 1.86939 17.4453 1.49782 16.1209 1.31977C14.8271 1.14582 13.1688 1.14582 11.0528 1.14584ZM3.66206 3.6619C4.18424 3.13972 4.89074 2.84006 6.06261 2.68251C7.25426 2.5223 8.82012 2.52084 11.0002 2.52084C13.1802 2.52084 14.7461 2.5223 15.9377 2.68251C17.1096 2.84006 17.8161 3.13972 18.3383 3.6619C18.8605 4.18408 19.1601 4.89058 19.3177 6.06245C19.4779 7.2541 19.4793 8.81996 19.4793 11C19.4793 13.18 19.4779 14.7459 19.3177 15.9376C19.1601 17.1094 18.8605 17.8159 18.3383 18.3381C17.8161 18.8603 17.1096 19.1599 15.9377 19.3175C14.7461 19.4777 13.1802 19.4792 11.0002 19.4792C8.82012 19.4792 7.25426 19.4777 6.06261 19.3175C4.89074 19.1599 4.18424 18.8603 3.66206 18.3381C3.13988 17.8159 2.84022 17.1094 2.68267 15.9376C2.52246 14.7459 2.521 13.18 2.521 11C2.521 8.81996 2.52246 7.2541 2.68267 6.06245C2.84022 4.89058 3.13988 4.18408 3.66206 3.6619Z" fill="#030303"/>
</svg>
