<svg width="54" height="23" viewBox="0 0 54 23" fill="none" xmlns="http://www.w3.org/2000/svg">
<rect width="54" height="23" rx="11.5" fill="#9DC45A"/>
<path d="M15.696 16H14.2983L17.4389 7.27273H18.9602L22.1009 16H20.7031L18.2358 8.85795H18.1676L15.696 16ZM15.9304 12.5824H20.4645V13.6903H15.9304V12.5824ZM26.1864 16H23.3612V7.27273H26.2759C27.131 7.27273 27.8654 7.44744 28.479 7.79688C29.0927 8.14347 29.5629 8.64205 29.8896 9.29261C30.2191 9.94034 30.3839 10.7173 30.3839 11.6236C30.3839 12.5327 30.2177 13.3139 29.8853 13.9673C29.5558 14.6207 29.0785 15.1236 28.4535 15.4759C27.8285 15.8253 27.0728 16 26.1864 16ZM24.6779 14.8494H26.114C26.7788 14.8494 27.3313 14.7244 27.7717 14.4744C28.212 14.2216 28.5415 13.8565 28.7603 13.3793C28.979 12.8991 29.0884 12.3139 29.0884 11.6236C29.0884 10.9389 28.979 10.358 28.7603 9.88068C28.5444 9.40341 28.2219 9.04119 27.793 8.79403C27.364 8.54687 26.8313 8.4233 26.195 8.4233H24.6779V14.8494ZM34.8466 16H32.0213V7.27273H34.9361C35.7912 7.27273 36.5256 7.44744 37.1392 7.79688C37.7528 8.14347 38.223 8.64205 38.5497 9.29261C38.8793 9.94034 39.044 10.7173 39.044 11.6236C39.044 12.5327 38.8778 13.3139 38.5455 13.9673C38.2159 14.6207 37.7386 15.1236 37.1136 15.4759C36.4886 15.8253 35.733 16 34.8466 16ZM33.3381 14.8494H34.7741C35.4389 14.8494 35.9915 14.7244 36.4318 14.4744C36.8722 14.2216 37.2017 13.8565 37.4205 13.3793C37.6392 12.8991 37.7486 12.3139 37.7486 11.6236C37.7486 10.9389 37.6392 10.358 37.4205 9.88068C37.2045 9.40341 36.8821 9.04119 36.4531 8.79403C36.0241 8.54687 35.4915 8.4233 34.8551 8.4233H33.3381V14.8494Z" fill="white"/>
</svg>
