<svg width="47" height="48" viewBox="0 0 47 48" fill="none" xmlns="http://www.w3.org/2000/svg">
<rect y="0.148254" width="47" height="47" rx="5" fill="#9DC45A" fill-opacity="0.1"/>
<path d="M33.7183 19.6653C32.5352 14.4819 27.9944 12.1483 24.0056 12.1483C24.0056 12.1483 24.0056 12.1483 23.9944 12.1483C20.0169 12.1483 15.4648 14.4707 14.2817 19.6541C12.9634 25.4434 16.5239 30.3463 19.7465 33.4317C20.9408 34.5761 22.4732 35.1483 24.0056 35.1483C25.538 35.1483 27.0704 34.5761 28.2535 33.4317C31.4761 30.3463 35.0366 25.4546 33.7183 19.6653ZM24.0056 25.2863C22.0451 25.2863 20.4563 23.7044 20.4563 21.7522C20.4563 19.8 22.0451 18.218 24.0056 18.218C25.9662 18.218 27.5549 19.8 27.5549 21.7522C27.5549 23.7044 25.9662 25.2863 24.0056 25.2863Z" fill="#9DC45A"/>
</svg>
