<svg width="22" height="22" viewBox="0 0 22 22" fill="none" xmlns="http://www.w3.org/2000/svg">
<path fill-rule="evenodd" clip-rule="evenodd" d="M3.896 7.80508C3.896 4.08158 7.124 1.14583 11.0002 1.14583C14.8763 1.14583 18.1043 4.08158 18.1043 7.80508C18.1043 11.2986 15.9383 15.4 12.4437 16.8934C11.5263 17.2855 10.474 17.2855 9.55661 16.8934C6.06198 15.4 3.896 11.2986 3.896 7.80508ZM11.0002 2.52083C7.78867 2.52083 5.271 4.93236 5.271 7.80508C5.271 10.8561 7.20097 14.3915 10.0969 15.6291C10.6692 15.8736 11.3311 15.8736 11.9034 15.6291C14.7994 14.3915 16.7293 10.8561 16.7293 7.80508C16.7293 4.93236 14.2117 2.52083 11.0002 2.52083ZM11.0002 7.10416C10.3673 7.10416 9.85433 7.61717 9.85433 8.25C9.85433 8.88282 10.3673 9.39583 11.0002 9.39583C11.633 9.39583 12.146 8.88282 12.146 8.25C12.146 7.61717 11.633 7.10416 11.0002 7.10416ZM8.47933 8.25C8.47933 6.85778 9.60794 5.72916 11.0002 5.72916C12.3924 5.72916 13.521 6.85778 13.521 8.25C13.521 9.64221 12.3924 10.7708 11.0002 10.7708C9.60794 10.7708 8.47933 9.64221 8.47933 8.25ZM3.29596 13.7469C3.55082 14.0283 3.52926 14.4631 3.2478 14.7179C2.72742 15.1892 2.521 15.6402 2.521 16.0417C2.521 16.7417 3.18467 17.6044 4.80048 18.3315C6.35175 19.0296 8.54305 19.4792 11.0002 19.4792C13.4573 19.4792 15.6486 19.0296 17.1999 18.3315C18.8157 17.6044 19.4793 16.7417 19.4793 16.0417C19.4793 15.6402 19.2729 15.1892 18.7525 14.7179C18.4711 14.4631 18.4495 14.0283 18.7044 13.7469C18.9592 13.4654 19.394 13.4439 19.6754 13.6987C20.3749 14.332 20.8543 15.126 20.8543 16.0417C20.8543 17.6198 19.466 18.8196 17.7641 19.5854C15.9977 20.3803 13.6057 20.8542 11.0002 20.8542C8.39466 20.8542 6.00264 20.3803 4.23622 19.5854C2.53435 18.8196 1.146 17.6198 1.146 16.0417C1.146 15.126 1.62546 14.332 2.32488 13.6987C2.60633 13.4439 3.0411 13.4654 3.29596 13.7469Z" fill="black"/>
</svg>
