<svg width="111" height="111" viewBox="0 0 111 111" fill="none" xmlns="http://www.w3.org/2000/svg">
<circle cx="55.6646" cy="55.1809" r="55" fill="#F5F5F5"/>
<path d="M79.7864 74.8684C76.2169 68.6973 70.7161 64.2723 64.2965 62.1747C67.4719 60.2843 69.939 57.4039 71.3189 53.9758C72.6988 50.5476 72.9152 46.7612 71.935 43.1982C70.9547 39.6351 68.8319 36.4923 65.8926 34.2525C62.9533 32.0126 59.36 30.7995 55.6645 30.7995C51.969 30.7995 48.3758 32.0126 45.4364 34.2525C42.4971 36.4923 40.3743 39.6351 39.3941 43.1982C38.4138 46.7612 38.6302 50.5476 40.0101 53.9758C41.39 57.4039 43.8571 60.2843 47.0325 62.1747C40.613 64.27 35.1122 68.695 31.5426 74.8684C31.4117 75.0819 31.3249 75.3194 31.2873 75.5669C31.2497 75.8144 31.262 76.067 31.3236 76.3097C31.3851 76.5524 31.4947 76.7803 31.6457 76.98C31.7968 77.1797 31.9864 77.347 32.2032 77.4723C32.42 77.5975 32.6597 77.6781 32.9081 77.7092C33.1566 77.7402 33.4087 77.7213 33.6497 77.6533C33.8907 77.5854 34.1157 77.4699 34.3113 77.3136C34.5069 77.1573 34.6692 76.9635 34.7887 76.7434C39.2044 69.1122 47.009 64.5559 55.6645 64.5559C64.32 64.5559 72.1247 69.1122 76.5403 76.7434C76.6598 76.9635 76.8221 77.1573 77.0177 77.3136C77.2134 77.4699 77.4383 77.5854 77.6793 77.6533C77.9203 77.7213 78.1725 77.7402 78.4209 77.7092C78.6693 77.6781 78.909 77.5975 79.1259 77.4723C79.3427 77.347 79.5322 77.1797 79.6833 76.98C79.8344 76.7803 79.9439 76.5524 80.0055 76.3097C80.067 76.067 80.0794 75.8144 80.0417 75.5669C80.0041 75.3194 79.9173 75.0819 79.7864 74.8684ZM42.5395 47.6809C42.5395 45.085 43.3093 42.5475 44.7515 40.3891C46.1937 38.2307 48.2435 36.5484 50.6418 35.555C53.0401 34.5616 55.6791 34.3017 58.2251 34.8081C60.7711 35.3145 63.1097 36.5646 64.9453 38.4001C66.7809 40.2357 68.0309 42.5744 68.5373 45.1204C69.0437 47.6664 68.7838 50.3054 67.7904 52.7036C66.797 55.1019 65.1148 57.1518 62.9564 58.594C60.798 60.0362 58.2604 60.8059 55.6645 60.8059C52.1847 60.8022 48.8485 59.4182 46.3878 56.9576C43.9272 54.497 42.5432 51.1607 42.5395 47.6809Z" fill="#A6A6A6"/>
</svg>
