<svg width="24" height="24" viewBox="0 0 24 24" fill="none" xmlns="http://www.w3.org/2000/svg">
<path d="M3.7813 14.9709C4.31931 17.6567 4.58832 18.9996 5.47718 19.8646C5.64146 20.0244 5.81919 20.1699 6.00841 20.2994C7.0322 21 8.40386 21 11.1472 21H12.8528C15.5961 21 16.9678 21 17.9916 20.2994C18.1808 20.1699 18.3585 20.0244 18.5228 19.8646C19.4117 18.9996 19.6807 17.6567 20.2187 14.9709C20.9911 11.1149 21.3773 9.18686 20.4883 7.82067C20.3273 7.5733 20.1394 7.34447 19.928 7.13836C18.7606 6 16.7913 6 12.8528 6H11.1472C7.20866 6 5.23939 6 4.07198 7.13836C3.86061 7.34447 3.67272 7.5733 3.51174 7.82067C2.62269 9.18686 3.00889 11.1149 3.7813 14.9709Z" fill="#617986" stroke="#617986"/>
<circle cx="15.5" cy="10.5" r="1.5" fill="white"/>
<circle cx="8.5" cy="10.5" r="1.5" fill="white"/>
<path d="M9 6V5C9 3.34315 10.3431 2 12 2C13.6569 2 15 3.34315 15 5V6" stroke="#617986" stroke-width="2" stroke-linecap="round"/>
</svg>
