<svg width="359" height="216" viewBox="0 0 359 216" fill="none" xmlns="http://www.w3.org/2000/svg">
<g filter="url(#filter0_d_375_187)">
<rect x="21" y="20" width="316" height="168" rx="16" fill="url(#paint0_linear_375_187)" shape-rendering="crispEdges"/>
<path d="M52.3379 99.8826C56.8615 96.2636 57.5855 89.6742 53.955 85.1649C50.3245 80.6555 43.7143 79.9338 39.1907 83.5528C34.6671 87.1719 33.9431 93.7612 37.5736 98.2706C41.2041 102.78 47.8143 103.502 52.3379 99.8826Z" fill="#E6FFBA"/>
<path d="M47.8914 100.931C53.4184 99.179 56.4743 93.2926 54.717 87.7831C52.9598 82.2736 47.0548 79.2273 41.5279 80.979C36.001 82.7307 32.945 88.6171 34.7023 94.1266C36.4595 99.6361 42.3645 102.682 47.8914 100.931Z" fill="#B5DC72"/>
<path d="M44.6968 100.065C42.7179 100.062 40.7942 99.4143 39.2181 98.2214C37.6421 97.0285 36.4997 95.3553 35.9648 93.4561C35.4298 91.5569 35.5315 89.5355 36.2543 87.6992C36.9772 85.8629 38.2816 84.3119 39.9695 83.2822C41.6574 82.2525 43.6364 81.8002 45.6057 81.9941C47.575 82.188 49.427 83.0175 50.8802 84.3565C52.3333 85.6956 53.3082 87.4709 53.6566 89.4127C54.0051 91.3546 53.7081 93.3567 52.8107 95.1149C52.0538 96.6105 50.8935 97.8661 49.4601 98.7405C48.0268 99.615 46.3773 100.074 44.6968 100.065ZM44.7212 82.2182C42.5604 82.2134 40.4731 82.9993 38.855 84.4269C37.237 85.8544 36.2008 87.8243 35.9431 89.9629C35.6855 92.1015 36.2241 94.26 37.457 96.0289C38.6898 97.7978 40.5311 99.0542 42.6315 99.5596C44.732 100.065 46.9454 99.7844 48.8521 98.7709C50.7587 97.7574 52.2259 96.0816 52.9753 94.0614C53.7247 92.0411 53.7042 89.817 52.9176 87.8108C52.1311 85.8046 50.6333 84.156 48.7083 83.1776C47.4734 82.5498 46.1074 82.2212 44.7212 82.2182Z" fill="white" fill-opacity="0.51"/>
<path d="M105.436 50.1252C107.981 49.6421 109.651 47.1937 109.167 44.6566C108.682 42.1195 106.226 40.4544 103.681 40.9375C101.136 41.4207 99.4652 43.8691 99.9498 46.4062C100.434 48.9433 102.891 50.6083 105.436 50.1252Z" fill="#E6FFBA"/>
<path d="M102.895 49.8492C103.796 50.0724 104.743 50.0241 105.617 49.7105C106.49 49.3969 107.251 48.832 107.802 48.0874C108.354 47.3427 108.672 46.4518 108.715 45.5272C108.759 44.6026 108.526 43.6859 108.047 42.8931C107.568 42.1003 106.863 41.4669 106.023 41.0731C105.183 40.6794 104.244 40.5429 103.326 40.6809C102.408 40.819 101.551 41.2254 100.865 41.8487C100.179 42.472 99.693 43.2843 99.4698 44.1828C99.1705 45.3869 99.3632 46.6602 100.005 47.7227C100.648 48.7853 101.687 49.5502 102.895 49.8492Z" fill="#B5DC72"/>
<path d="M104.813 49.3679C104.225 49.481 103.619 49.4646 103.039 49.3198C102.06 49.0753 101.207 48.4794 100.642 47.6463C100.077 46.8132 99.8403 45.8016 99.9775 44.8053C100.115 43.8091 100.616 42.8985 101.385 42.2479C102.154 41.5973 103.137 41.2527 104.146 41.28C105.154 41.3073 106.117 41.7047 106.849 42.3959C107.582 43.0872 108.033 44.0237 108.115 45.0259C108.198 46.028 107.907 47.0254 107.297 47.8266C106.688 48.6279 105.803 49.1767 104.813 49.3679ZM103.293 41.5348C102.425 41.7021 101.641 42.1599 101.069 42.8323C100.498 43.5047 100.174 44.3515 100.151 45.2325C100.128 46.1135 100.407 46.9759 100.943 47.6769C101.479 48.378 102.238 48.8757 103.096 49.0877C103.66 49.226 104.247 49.2366 104.814 49.1188C105.382 49.0011 105.916 48.758 106.377 48.4074C106.838 48.0567 107.214 47.6076 107.478 47.0929C107.742 46.5781 107.887 46.011 107.902 45.4331C107.917 44.8553 107.802 44.2814 107.565 43.7537C107.329 43.226 106.976 42.758 106.534 42.384C106.092 42.01 105.571 41.7396 105.01 41.5926C104.45 41.4457 103.863 41.4259 103.293 41.5348Z" fill="white" fill-opacity="0.51"/>
<path d="M105.419 46.977L103.5 46.3383L103.223 46.0303L103.47 45.8077C103.615 45.6766 103.709 45.5346 103.75 45.3817C103.789 45.226 103.769 45.0776 103.692 44.9363L102.889 45.66L102.611 45.352L103.41 44.6321C103.29 44.5489 103.161 44.5073 103.022 44.5072C102.88 44.5044 102.74 44.5648 102.603 44.6885L102.278 44.9817L102 44.6737L103.857 43L104.135 43.3079L103.488 43.8906C103.679 43.9094 103.851 43.9784 104.003 44.0977L104.468 43.6783L104.746 43.9863L104.289 44.3982C104.446 44.6282 104.513 44.8597 104.489 45.0925C104.463 45.3225 104.367 45.5499 104.201 45.7746L106.152 46.3164L105.419 46.977Z" fill="white"/>
<path d="M260.258 39.763C262.149 34.8452 259.682 29.3305 254.749 27.4455C249.816 25.5606 244.284 28.0191 242.393 32.9369C240.502 37.8547 242.968 43.3694 247.901 45.2544C252.835 47.1394 258.367 44.6808 260.258 39.763Z" fill="#E6FFBA"/>
<path d="M257.227 42.2834C260.995 38.5937 261.049 32.5575 257.348 28.8013C253.646 25.045 247.591 24.9911 243.823 28.6808C240.055 32.3705 240.001 38.4066 243.702 42.1629C247.403 45.9191 253.459 45.9731 257.227 42.2834Z" fill="#B5DC72"/>
<path d="M250.505 43.858C248.616 43.8597 246.784 43.221 245.308 42.0468C243.762 40.8211 242.701 39.0892 242.313 37.1582C241.926 35.2272 242.237 33.2218 243.191 31.4974C244.145 29.7731 245.681 28.4412 247.526 27.7379C249.371 27.0347 251.407 27.0054 253.272 27.6554C255.136 28.3053 256.71 29.5925 257.714 31.2887C258.718 32.9849 259.086 34.9806 258.755 36.9219C258.423 38.8633 257.413 40.6249 255.903 41.8945C254.393 43.1642 252.48 43.8597 250.505 43.858ZM245.56 41.7326C246.79 42.7093 248.283 43.3004 249.85 43.4313C251.416 43.5623 252.987 43.2271 254.363 42.4682C255.739 41.7093 256.858 40.5608 257.579 39.1678C258.3 37.7749 258.59 36.2002 258.413 34.6427C258.236 33.0852 257.6 31.615 256.585 30.418C255.57 29.221 254.222 28.3509 252.711 27.9178C251.199 27.4846 249.593 27.5079 248.096 27.9847C246.598 28.4615 245.275 29.3703 244.296 30.5962C242.984 32.2411 242.381 34.3373 242.618 36.4251C242.855 38.5128 243.913 40.4216 245.56 41.7326Z" fill="white" fill-opacity="0.51"/>
<path d="M313.927 118.698C317.898 117.944 320.504 114.125 319.748 110.167C318.992 106.209 315.16 103.611 311.189 104.365C307.219 105.118 304.613 108.938 305.369 112.896C306.125 116.854 309.957 119.452 313.927 118.698Z" fill="#E6FFBA"/>
<path d="M309.963 118.267C311.369 118.616 312.847 118.54 314.21 118.051C315.572 117.562 316.759 116.681 317.62 115.519C318.48 114.357 318.976 112.967 319.043 111.525C319.111 110.082 318.749 108.652 318.001 107.416C317.253 106.179 316.155 105.191 314.844 104.576C313.533 103.962 312.069 103.749 310.636 103.964C309.204 104.18 307.868 104.814 306.797 105.786C305.726 106.759 304.968 108.026 304.62 109.427C304.153 111.306 304.454 113.292 305.456 114.95C306.458 116.608 308.079 117.801 309.963 118.267Z" fill="#B5DC72"/>
<path d="M312.956 117.516C312.039 117.693 311.094 117.667 310.188 117.441C308.661 117.06 307.33 116.13 306.449 114.831C305.567 113.531 305.198 111.953 305.412 110.399C305.626 108.845 306.408 107.424 307.608 106.409C308.808 105.394 310.342 104.856 311.915 104.899C313.488 104.942 314.99 105.562 316.133 106.64C317.276 107.718 317.979 109.179 318.108 110.743C318.237 112.306 317.782 113.862 316.832 115.112C315.881 116.362 314.501 117.218 312.956 117.516ZM310.585 105.296C309.231 105.557 308.007 106.272 307.115 107.321C306.224 108.37 305.718 109.691 305.682 111.065C305.647 112.439 306.083 113.785 306.918 114.879C307.754 115.972 308.939 116.749 310.278 117.079C311.157 117.295 312.072 117.312 312.958 117.128C313.844 116.944 314.677 116.565 315.396 116.018C316.115 115.471 316.702 114.77 317.114 113.967C317.526 113.164 317.752 112.28 317.775 111.378C317.799 110.477 317.619 109.581 317.25 108.758C316.88 107.935 316.331 107.205 315.641 106.621C314.951 106.038 314.139 105.616 313.264 105.387C312.389 105.157 311.474 105.127 310.585 105.296Z" fill="white" fill-opacity="0.51"/>
<path d="M249.996 40L248 36.4818V35.6527H248.665C249.057 35.6527 249.386 35.5668 249.652 35.395C249.918 35.2157 250.088 34.9692 250.162 34.6555H248V33.8263H250.151C250.084 33.5425 249.948 33.3072 249.741 33.1204C249.534 32.9262 249.245 32.8291 248.876 32.8291H248V32H253V32.8291H251.259C251.518 33.113 251.681 33.4454 251.747 33.8263H253V34.6555H251.769C251.695 35.2082 251.485 35.6415 251.137 35.9552C250.79 36.2614 250.343 36.4706 249.796 36.5826L251.969 40H249.996Z" fill="white"/>
<path d="M311.596 114.4L310 111.585V110.922H310.532C310.846 110.922 311.109 110.853 311.322 110.716C311.534 110.573 311.67 110.375 311.729 110.124H310V109.461H311.721C311.667 109.234 311.558 109.046 311.392 108.896C311.227 108.741 310.996 108.663 310.701 108.663H310V108H314V108.663H312.608C312.814 108.89 312.945 109.156 312.998 109.461H314V110.124H313.016C312.956 110.567 312.788 110.913 312.51 111.164C312.232 111.409 311.874 111.576 311.437 111.666L313.175 114.4H311.596Z" fill="white"/>
<path d="M46.3082 96.9237L41.6789 93.6625L41.1833 92.6129L42.0254 92.2153C42.5213 91.9811 42.8864 91.6758 43.1205 91.2992C43.3502 90.9132 43.4181 90.4996 43.3241 90.0582L40.5872 91.3504L40.0916 90.3007L42.8145 89.0152C42.5606 88.6956 42.2469 88.4794 41.8733 88.3667C41.4952 88.2445 41.0722 88.2939 40.6044 88.5148L39.4956 89.0383L39 87.9886L45.3299 85L45.8255 86.0497L43.622 87.0901C44.1191 87.2948 44.5237 87.6184 44.8356 88.0609L46.4216 87.3121L46.9172 88.3618L45.3593 89.0973C45.5961 89.8413 45.5884 90.5157 45.3361 91.1205C45.0794 91.7158 44.6383 92.2479 44.0129 92.7167L48.8065 95.7442L46.3082 96.9237Z" fill="white"/>
<path d="M313.75 171.25C313.849 171.251 313.946 171.232 314.038 171.194C314.129 171.157 314.212 171.102 314.282 171.033L318.782 166.533C318.922 166.392 319 166.202 319 166.004C319 165.806 318.922 165.616 318.782 165.475L314.282 160.975C314.139 160.852 313.954 160.788 313.766 160.795C313.577 160.803 313.398 160.881 313.264 161.014C313.131 161.148 313.052 161.327 313.045 161.516C313.038 161.704 313.102 161.889 313.225 162.033L317.192 166L313.225 169.968C313.12 170.072 313.048 170.205 313.018 170.351C312.989 170.496 313.003 170.647 313.059 170.784C313.115 170.921 313.211 171.039 313.334 171.122C313.457 171.205 313.602 171.249 313.75 171.25Z" fill="white"/>
</g>
<defs>
<filter id="filter0_d_375_187" x="0" y="0" width="364" height="216" filterUnits="userSpaceOnUse" color-interpolation-filters="sRGB">
<feFlood flood-opacity="0" result="BackgroundImageFix"/>
<feColorMatrix in="SourceAlpha" type="matrix" values="0 0 0 0 0 0 0 0 0 0 0 0 0 0 0 0 0 0 127 0" result="hardAlpha"/>
<feOffset dx="3" dy="4"/>
<feGaussianBlur stdDeviation="12"/>
<feComposite in2="hardAlpha" operator="out"/>
<feColorMatrix type="matrix" values="0 0 0 0 0.615686 0 0 0 0 0.768627 0 0 0 0 0.352941 0 0 0 0.87 0"/>
<feBlend mode="normal" in2="BackgroundImageFix" result="effect1_dropShadow_375_187"/>
<feBlend mode="normal" in="SourceGraphic" in2="effect1_dropShadow_375_187" result="shape"/>
</filter>
<linearGradient id="paint0_linear_375_187" x1="307.616" y1="-1.23078" x2="186.59" y2="192.736" gradientUnits="userSpaceOnUse">
<stop stop-color="#9DC45A"/>
<stop offset="1" stop-color="#85AB44"/>
</linearGradient>
</defs>
</svg>
