<svg width="22" height="22" viewBox="0 0 22 22" fill="none" xmlns="http://www.w3.org/2000/svg">
<path d="M13.7499 4.58334C13.6293 4.58264 13.5097 4.60576 13.398 4.65138C13.2863 4.697 13.1847 4.76421 13.0991 4.84917L7.59908 10.3492C7.42835 10.5209 7.33252 10.7533 7.33252 10.9954C7.33252 11.2376 7.42835 11.4699 7.59908 11.6417L13.0991 17.1417C13.2744 17.2918 13.5 17.3703 13.7307 17.3614C13.9614 17.3525 14.1803 17.2569 14.3435 17.0936C14.5068 16.9304 14.6024 16.7115 14.6113 16.4808C14.6202 16.2501 14.5418 16.0245 14.3916 15.8492L9.54241 11L14.3916 6.15084C14.5203 6.02317 14.6083 5.8602 14.6444 5.68254C14.6805 5.50488 14.6631 5.3205 14.5944 5.15272C14.5257 4.98494 14.4088 4.8413 14.2585 4.73995C14.1082 4.6386 13.9312 4.5841 13.7499 4.58334Z" fill="black"/>
</svg>
