<svg width="17" height="18" viewBox="0 0 17 18" fill="none" xmlns="http://www.w3.org/2000/svg">
<rect x="0.481262" y="0.772961" width="16.5187" height="16.5187" rx="2.75312" fill="#9DC45A"/>
<path d="M11.8211 6.10154C11.8707 6.05089 11.93 6.01066 11.9954 5.98319C12.0607 5.95573 12.1309 5.94158 12.2018 5.94158C12.2727 5.94158 12.3429 5.95573 12.4083 5.98319C12.4737 6.01066 12.5329 6.05089 12.5826 6.10154C12.7906 6.31172 12.7935 6.65137 12.5898 6.86519L8.28939 11.9489C8.24057 12.0025 8.18132 12.0456 8.11527 12.0756C8.04921 12.1055 7.97775 12.1216 7.90525 12.123C7.83274 12.1244 7.76072 12.1109 7.69359 12.0835C7.62646 12.0561 7.56564 12.0152 7.51483 11.9635L4.89805 9.31178C4.79713 9.20886 4.7406 9.07047 4.7406 8.92632C4.7406 8.78218 4.79713 8.64378 4.89805 8.54086C4.94769 8.49022 5.00693 8.44998 5.0723 8.42252C5.13768 8.39505 5.20788 8.3809 5.27879 8.3809C5.3497 8.3809 5.4199 8.39505 5.48527 8.42252C5.55065 8.44998 5.60989 8.49022 5.65952 8.54086L7.8792 10.7904L11.8066 6.11754C11.8111 6.11192 11.8159 6.10657 11.8211 6.10154Z" fill="white"/>
</svg>
