<svg width="15" height="12" viewBox="0 0 15 12" fill="none" xmlns="http://www.w3.org/2000/svg">
<g clip-path="url(#clip0_375_183)">
<path d="M3.31233 9.17942C2.95273 8.91608 2.60799 8.68365 2.28635 8.42422C1.44005 7.74057 0.710433 6.924 0.125992 6.00639C-0.0410918 5.74657 -0.042657 5.52196 0.125992 5.26292C1.34332 3.39917 2.9359 1.99911 5.08178 1.31434C6.96979 0.711741 8.84019 0.821696 10.6664 1.59725C10.7838 1.64616 10.8444 1.62973 10.9278 1.54521C11.3871 1.078 11.8528 0.616656 12.3161 0.15336C12.4519 0.0179709 12.6119 -0.0332891 12.7986 0.0230577C12.8796 0.0448404 12.9528 0.0891026 13.0097 0.150729C13.0666 0.212355 13.1049 0.288829 13.1202 0.371313C13.1625 0.561092 13.0869 0.711741 12.9527 0.845174C12.3251 1.46942 11.699 2.0955 11.0745 2.7234C8.29394 5.50292 5.51246 8.28178 2.73008 11.06C2.63403 11.1546 2.51535 11.223 2.38534 11.2588C2.19635 11.3069 2.00344 11.186 1.91579 11.0099C1.82188 10.8225 1.85396 10.6186 2.01322 10.4586C2.40217 10.066 2.79347 9.67467 3.18711 9.28468C3.22233 9.24829 3.26694 9.21698 3.31233 9.17942ZM9.09884 3.3123L10.045 2.36615C10.0501 2.36928 10.0387 2.3595 10.0254 2.35441C8.41328 1.7432 6.78862 1.70603 5.16434 2.28319C3.43011 2.89988 2.11457 4.05538 1.06667 5.54231C1.01267 5.62057 1.02754 5.66713 1.07411 5.73365C1.46806 6.30029 1.92328 6.82178 2.43152 7.28867C2.90695 7.73179 3.43219 8.11823 3.99671 8.44026L5.18547 7.25189C4.30779 5.95708 4.67365 4.47368 5.50399 3.64256C6.33432 2.81144 7.82321 2.44715 9.09884 3.3123ZM8.42659 4.02447C7.73595 3.54356 6.6771 3.71925 6.07606 4.40989C5.46916 5.10719 5.52825 6.0776 5.89489 6.55616L8.42659 4.02447Z" fill="#9D9D9D"/>
<path d="M5.14673 9.96558C5.39481 9.72024 5.62724 9.48898 5.86437 9.2636C5.88402 9.24769 5.90674 9.236 5.93111 9.22927C5.95549 9.22253 5.98099 9.2209 6.00602 9.22447C8.5831 9.75507 10.765 8.97443 12.6518 7.22063C13.1253 6.77402 13.5503 6.27877 13.92 5.74309C13.9783 5.65974 13.9736 5.60692 13.9173 5.52709C13.3649 4.73618 12.6957 4.03363 11.9326 3.44344C11.8904 3.41096 11.8489 3.37731 11.8152 3.35148L12.4973 2.67493C12.9469 3.01594 13.3651 3.39664 13.7467 3.81243C14.168 4.26875 14.5478 4.76178 14.8814 5.28566C15.034 5.52396 15.0407 5.73879 14.8857 5.97865C13.6903 7.82597 12.1177 9.21742 10.0055 9.92763C8.43206 10.4563 6.83948 10.4617 5.24494 10.0059C5.22186 9.99767 5.19916 9.9871 5.14673 9.96558Z" fill="#9D9D9D"/>
<path d="M10.2203 4.90216C10.4551 5.94379 10.2402 6.84026 9.52183 7.58333C8.77288 8.35888 7.84981 8.59405 6.75183 8.35614C6.90131 8.21293 7.02339 8.09632 7.14313 7.97893C7.18539 7.9398 7.22882 7.89833 7.26717 7.85411C7.44986 7.63469 7.70189 7.48411 7.98168 7.4272C8.72514 7.2609 9.25848 6.618 9.35122 5.86632C9.35498 5.81367 9.37448 5.76336 9.40718 5.72193C9.66543 5.45546 9.92878 5.19446 10.2203 4.90216Z" fill="#9D9D9D"/>
</g>
<defs>
<clipPath id="clip0_375_183">
<rect width="15" height="11.2694" fill="white"/>
</clipPath>
</defs>
</svg>
