<svg width="24" height="24" viewBox="0 0 24 24" fill="none" xmlns="http://www.w3.org/2000/svg">
<path d="M10.2635 3.05811C11.2548 2.18062 12.745 2.18062 13.7363 3.05811L14.4999 3.73405C14.9379 4.12178 15.4931 4.35176 16.077 4.38732L17.0949 4.44931C18.4164 4.52979 19.4701 5.58351 19.5506 6.90494L19.6126 7.92285C19.6481 8.50676 19.8781 9.06196 20.2659 9.49999L20.9418 10.2636C21.8193 11.2549 21.8193 12.7451 20.9418 13.7364L20.2659 14.5C19.8781 14.938 19.6481 15.4932 19.6126 16.0771L19.5506 17.095C19.4701 18.4165 18.4164 19.4702 17.0949 19.5507L16.077 19.6127C15.4931 19.6482 14.9379 19.8782 14.4999 20.2659L13.7363 20.9419C12.745 21.8194 11.2548 21.8194 10.2635 20.9419L9.4999 20.2659C9.06187 19.8782 8.50667 19.6482 7.92276 19.6127L6.90485 19.5507C5.58342 19.4702 4.5297 18.4165 4.44922 17.095L4.38723 16.0771C4.35167 15.4932 4.12169 14.938 3.73395 14.5L3.05802 13.7364C2.18053 12.7451 2.18053 11.2549 3.05802 10.2636L3.73395 9.49999C4.12169 9.06196 4.35167 8.50676 4.38723 7.92285L4.44922 6.90495C4.5297 5.58351 5.58341 4.52979 6.90485 4.44931L7.92276 4.38732C8.50667 4.35176 9.06187 4.12178 9.4999 3.73405L10.2635 3.05811Z" fill="#9DC45A" stroke="black"/>
<path d="M8.3999 15.6L15.5999 8.39996M8.9538 8.94931L8.93965 8.93501M15.0643 15.1227L15.0502 15.1084" stroke="black" stroke-width="1.5" stroke-linecap="round"/>
</svg>
