<svg width="26" height="26" viewBox="0 0 26 26" fill="none" xmlns="http://www.w3.org/2000/svg">
<path d="M24.8066 23.3489C24.9227 23.465 25.0148 23.6029 25.0777 23.7546C25.1405 23.9064 25.1729 24.069 25.1729 24.2332C25.1729 24.3975 25.1405 24.5601 25.0777 24.7118C25.0148 24.8636 24.9227 25.0014 24.8066 25.1176C24.6904 25.2337 24.5526 25.3258 24.4008 25.3887C24.2491 25.4515 24.0865 25.4839 23.9222 25.4839C23.758 25.4839 23.5954 25.4515 23.4436 25.3887C23.2919 25.3258 23.154 25.2337 23.0379 25.1176L12.6729 14.7509L2.3078 25.1176C2.07326 25.3521 1.75516 25.4839 1.42348 25.4839C1.09179 25.4839 0.773689 25.3521 0.539151 25.1176C0.304613 24.883 0.172852 24.5649 0.172852 24.2332C0.172852 23.9015 0.304613 23.5834 0.539151 23.3489L10.9058 12.9839L0.539151 2.61881C0.304613 2.38427 0.172852 2.06617 0.172852 1.73448C0.172852 1.4028 0.304613 1.08469 0.539151 0.850156C0.773689 0.615618 1.09179 0.483856 1.42348 0.483856C1.75516 0.483856 2.07326 0.615618 2.3078 0.850156L12.6729 11.2168L23.0379 0.850156C23.2724 0.615618 23.5905 0.483856 23.9222 0.483856C24.2539 0.483856 24.572 0.615618 24.8066 0.850156C25.0411 1.08469 25.1729 1.4028 25.1729 1.73448C25.1729 2.06617 25.0411 2.38427 24.8066 2.61881L14.4399 12.9839L24.8066 23.3489Z" fill="#F12222"/>
</svg>
