<svg width="30" height="30" viewBox="0 0 30 30" fill="none" xmlns="http://www.w3.org/2000/svg">
<circle cx="15" cy="15" r="14.5" fill="white" stroke="#D8D8D8"/>
<path fill-rule="evenodd" clip-rule="evenodd" d="M15.0002 7.83331C12.1467 7.83331 9.83352 10.1465 9.83352 13V13.4694C9.83352 13.934 9.696 14.3882 9.43827 14.7748L8.67254 15.9234C7.78381 17.2565 8.46228 19.0685 10.008 19.4901C10.5117 19.6275 11.0197 19.7437 11.5307 19.8387L11.5319 19.8421C12.0446 21.21 13.4148 22.1666 15.0001 22.1666C16.5855 22.1666 17.9557 21.21 18.4683 19.8421L18.4696 19.8387C18.9806 19.7437 19.4886 19.6275 19.9924 19.4901C21.5381 19.0685 22.2166 17.2565 21.3278 15.9234L20.5621 14.7748C20.3044 14.3882 20.1669 13.934 20.1669 13.4694V13C20.1669 10.1465 17.8537 7.83331 15.0002 7.83331ZM17.2511 20.0246C15.7558 20.2033 14.2445 20.2033 12.7492 20.0246C13.2231 20.7056 14.0475 21.1666 15.0001 21.1666C15.9528 21.1666 16.7772 20.7056 17.2511 20.0246ZM10.8335 13C10.8335 10.6988 12.699 8.83331 15.0002 8.83331C17.3014 8.83331 19.1669 10.6988 19.1669 13V13.4694C19.1669 14.1314 19.3628 14.7786 19.7301 15.3295L20.4958 16.4781C21.0059 17.2433 20.6165 18.2833 19.7293 18.5253C16.6331 19.3697 13.3673 19.3697 10.2711 18.5253C9.3839 18.2833 8.99447 17.2433 9.50459 16.4781L10.2703 15.3295C10.6376 14.7786 10.8335 14.1314 10.8335 13.4694V13Z" fill="#9DC45A"/>
</svg>
