<svg width="30" height="30" viewBox="0 0 30 30" fill="none" xmlns="http://www.w3.org/2000/svg">
<circle cx="15" cy="15" r="14.5" fill="white" stroke="#D8D8D8"/>
<path fill-rule="evenodd" clip-rule="evenodd" d="M9.78231 8.55758C10.6562 7.70703 12.0952 7.85843 12.8269 8.8152L13.7322 9.99881C14.3276 10.7773 14.2751 11.8654 13.5683 12.5532L13.3969 12.7201C13.3894 12.7413 13.3712 12.8082 13.3914 12.9354C13.4368 13.2217 13.6811 13.8291 14.7066 14.8273C15.7318 15.825 16.3567 16.0639 16.6534 16.1084C16.7879 16.1286 16.8582 16.1098 16.8799 16.1024L17.1729 15.8173C17.8012 15.2058 18.7666 15.0915 19.5446 15.5054L20.9161 16.2352C22.0906 16.8601 22.3873 18.4227 21.4251 19.3592L20.4053 20.3517C20.0839 20.6644 19.6518 20.9252 19.1245 20.9733C17.8258 21.0918 14.7976 20.9406 11.6158 17.8439C8.64516 14.9527 8.0751 12.4315 8.00298 11.1893L8.54053 11.1594L8.00298 11.1893C7.96651 10.5611 8.26976 10.0297 8.6555 9.65426L9.78231 8.55758ZM11.9649 9.44687C11.6012 8.97133 10.9233 8.93352 10.5416 9.30501L9.41477 10.4017C9.17792 10.6322 9.06397 10.8862 9.07809 11.1295C9.1354 12.1165 9.59578 14.3915 12.375 17.0965C15.2907 19.9342 17.9837 20.0188 19.0245 19.9238C19.2372 19.9044 19.4487 19.7963 19.646 19.6043L20.6658 18.6117C21.0803 18.2083 20.9889 17.4736 20.4018 17.1612L19.0303 16.4315C18.6515 16.2299 18.2078 16.2964 17.9321 16.5647L17.6052 16.8829L17.2255 16.5092C17.6052 16.8829 17.6047 16.8834 17.6041 16.8839L17.6031 16.885L17.6009 16.8871L17.5962 16.8914L17.5857 16.901C17.5782 16.9078 17.5695 16.9151 17.5598 16.9231C17.5403 16.9389 17.5163 16.9568 17.4876 16.9756C17.4302 17.0132 17.3543 17.0542 17.2589 17.089C17.0644 17.1599 16.808 17.198 16.4901 17.1503C15.8679 17.0568 15.0435 16.6416 13.9473 15.5747C12.8515 14.5081 12.4236 13.705 12.3273 13.097C12.278 12.7861 12.3173 12.535 12.3906 12.3445C12.4265 12.2512 12.4689 12.177 12.5077 12.1208C12.5271 12.0928 12.5456 12.0694 12.5619 12.0504C12.57 12.0409 12.5776 12.0325 12.5845 12.0251L12.5944 12.0149L12.5989 12.0103L12.601 12.0082L12.6021 12.0072C12.6026 12.0067 12.6031 12.0062 12.9827 12.3799L12.6031 12.0062L12.809 11.8058C13.1167 11.5063 13.1598 11.0092 12.8701 10.6305L11.9649 9.44687Z" fill="#9DC45A"/>
</svg>
