<svg width="18" height="18" viewBox="0 0 18 18" fill="none" xmlns="http://www.w3.org/2000/svg">
<path d="M3.74998 6.75C3.74941 6.84871 3.76833 6.94655 3.80565 7.03793C3.84297 7.12931 3.89797 7.21242 3.96748 7.2825L8.46748 11.7825C8.608 11.9222 8.79809 12.0006 8.99623 12.0006C9.19437 12.0006 9.38446 11.9222 9.52498 11.7825L14.025 7.2825C14.1478 7.13902 14.2121 6.95447 14.2048 6.76571C14.1975 6.57695 14.1192 6.3979 13.9857 6.26433C13.8521 6.13076 13.673 6.05251 13.4843 6.04522C13.2955 6.03793 13.111 6.10213 12.9675 6.225L8.99998 10.1925L5.03248 6.225C4.92802 6.11968 4.79469 6.04771 4.64933 6.01817C4.50397 5.98863 4.35311 6.00286 4.21584 6.05905C4.07856 6.11524 3.96104 6.21088 3.87811 6.33387C3.79519 6.45686 3.7506 6.60167 3.74998 6.75Z" fill="#9D9D9D"/>
</svg>
