<svg width="250" height="250" viewBox="0 0 250 250" fill="none" xmlns="http://www.w3.org/2000/svg">
<path d="M206.931 101.695C208.471 102.695 208.391 104.695 208.141 106.905C206.471 121.455 204.871 136.015 203.251 150.575L197.871 198.845C197.051 206.178 196.231 213.532 195.411 220.905C195.081 223.845 193.861 224.985 190.901 224.985H59.2208C56.2208 224.985 54.9508 223.875 54.6308 220.985C51.5308 193.098 48.4308 165.212 45.3308 137.325C44.1808 126.985 42.9308 116.645 41.8908 106.325C41.7208 104.675 42.4608 102.935 42.8908 100.895C41.0508 96.605 38.6408 91.895 36.9508 86.895C34.8208 80.625 35.0908 74.415 39.6708 68.755L27.9608 58.825C27.4308 58.375 26.8708 57.965 26.3708 57.475C25.9932 57.1663 25.6815 56.7849 25.4542 56.3534C25.2269 55.9219 25.0886 55.4491 25.0476 54.9632C25.0065 54.4772 25.0636 53.9879 25.2153 53.5244C25.367 53.0609 25.6104 52.6326 25.9308 52.265C26.2291 51.8808 26.6034 51.5625 27.0305 51.3298C27.4575 51.0972 27.9281 50.9553 28.4125 50.913C28.897 50.8708 29.385 50.9291 29.8459 51.0843C30.3068 51.2395 30.7306 51.4883 31.0908 51.815C34.3408 54.415 37.4908 57.145 40.6808 59.815C41.3708 60.395 42.0908 60.945 43.1608 61.815C43.1108 60.625 43.1608 59.815 43.0308 59.035C42.0308 51.625 41.0308 44.225 40.0308 36.815C39.8338 35.7602 39.868 34.6753 40.1308 33.635C40.3645 32.8422 40.8855 32.165 41.592 31.736C42.2985 31.3069 43.1396 31.1568 43.9508 31.315C44.8111 31.382 45.6176 31.76 46.2194 32.3784C46.8213 32.9968 47.1773 33.8132 47.2208 34.675C47.8908 39.325 48.4908 43.995 49.1108 48.675L50.9608 62.415L60.7608 65.345C63.1108 61.135 66.8408 57.675 71.0608 54.605C72.0608 53.885 72.5008 51.915 72.5308 50.495C72.6808 43.635 72.5808 36.765 72.6008 29.895C72.6008 26.195 73.7708 25.015 77.4008 25.015C86.5808 25.015 95.7608 25.015 104.941 25.015C108.391 25.015 109.691 26.315 109.701 29.765C109.701 36.765 109.701 43.765 109.701 50.825C109.701 53.905 113.181 57.485 116.541 57.825C116.891 55.825 117.171 53.775 117.621 51.765C118.781 46.565 120.841 41.765 124.721 37.985C130.621 32.205 138.781 32.345 144.431 38.375C149.181 43.435 151.121 49.705 151.861 56.435C152.011 57.785 152.081 59.155 152.151 60.015L164.031 61.365C164.391 60.825 165.101 59.745 165.821 58.675C171.941 49.565 178.491 40.795 186.961 33.675C191.801 29.615 197.071 26.395 203.461 25.315C214.061 23.535 223.091 30.105 224.571 40.725C225.821 49.725 223.961 58.325 220.961 66.585C216.711 78.265 211.761 89.705 206.931 101.695ZM61.6608 217.415H188.381L200.481 108.475H49.5508L61.6608 217.415ZM175.781 57.115C174.57 59.1333 173.234 61.0738 171.781 62.925C168.621 66.445 168.541 69.715 171.151 73.735C173.761 77.755 175.471 82.075 177.581 86.265C179.161 89.405 178.821 91.505 176.581 92.615C174.341 93.725 172.581 92.685 170.921 89.495L168.281 84.345L163.841 75.555L150.651 100.965C166.461 100.965 181.651 100.965 196.841 100.915C197.223 100.865 197.589 100.731 197.913 100.521C198.236 100.312 198.509 100.033 198.711 99.705C204.961 87.705 210.711 75.375 214.601 62.335C216.381 56.415 217.791 50.415 217.541 44.165C217.281 36.475 213.131 32.265 206.181 32.485C202.061 32.635 198.471 34.325 195.081 36.725C195.491 37.555 195.821 38.245 196.161 38.925C199.031 44.635 201.921 50.345 204.751 56.075C205.891 58.375 205.321 60.475 203.431 61.465C201.541 62.455 199.431 61.705 198.131 59.325C197.341 57.825 196.601 56.325 195.831 54.785L189.031 41.265C186.471 44.105 184.191 46.695 181.811 49.205C181.416 49.5606 181.168 50.0504 181.114 50.5791C181.061 51.1077 181.206 51.6374 181.521 52.065C184.311 57.475 187.031 62.915 189.771 68.355C190.461 69.735 191.191 71.095 191.771 72.525C192.123 73.3131 192.159 74.2066 191.87 75.0202C191.582 75.8339 190.991 76.5052 190.221 76.895C189.457 77.3653 188.545 77.5328 187.664 77.3644C186.783 77.1959 185.997 76.7039 185.461 75.985C185.02 75.3547 184.639 74.6852 184.321 73.985C181.531 68.535 178.771 63.035 175.781 57.115ZM159.581 68.265C158.106 67.6589 156.499 67.4517 154.919 67.6641C153.339 67.8765 151.843 68.501 150.581 69.475C149.972 70.0184 149.207 70.3555 148.395 70.4381C147.584 70.5207 146.767 70.3446 146.061 69.935C144.431 68.985 144.261 67.475 144.351 65.735C144.592 62.6672 144.615 59.5861 144.421 56.515C143.981 51.695 142.551 47.125 139.141 43.515C136.231 40.405 132.791 40.305 129.881 43.395C128.39 44.8445 127.245 46.6117 126.531 48.565C125.406 52.3906 124.606 56.3046 124.141 60.265C123.731 63.775 122.921 64.905 119.361 65.015C114.671 65.165 111.091 67.835 110.001 72.175C109.542 73.8225 109.556 75.5659 110.043 77.2055C110.529 78.845 111.468 80.3144 112.751 81.445C113.428 81.9724 113.899 82.7204 114.081 83.559C114.264 84.3976 114.147 85.2737 113.751 86.035C112.881 87.795 111.311 88.265 109.461 87.975C109.161 87.975 108.851 87.855 108.551 87.815C107.154 87.6199 105.73 87.8063 104.43 88.3545C103.13 88.9027 102.003 89.7923 101.168 90.929C100.332 92.0657 99.8202 93.4071 99.6851 94.8113C99.5501 96.2154 99.7974 97.63 100.401 98.905C100.638 99.5888 101.098 100.173 101.708 100.563C102.317 100.953 103.041 101.126 103.761 101.055C116.021 100.968 128.281 100.968 140.541 101.055C141.175 101.13 141.816 100.99 142.36 100.656C142.905 100.322 143.32 99.8143 143.541 99.215C148.541 89.495 153.651 79.835 158.721 70.145C158.991 69.565 159.281 69.015 159.581 68.265ZM108.101 61.605C102.491 58.305 101.881 53.035 102.341 47.345H80.2808C80.1849 47.5114 80.1109 47.6896 80.0608 47.875C80.0066 48.4867 79.9866 49.101 80.0008 49.715C80.2908 55.125 78.1708 59.075 73.5808 62.135C71.1708 63.735 69.4208 66.375 67.4708 68.625C66.2808 69.975 66.2808 71.265 67.6508 72.665C68.9489 73.987 70.035 75.5015 70.8708 77.155C74.5108 84.435 77.9908 91.795 81.6108 99.085C81.9808 99.835 82.8208 100.825 83.5008 100.865C86.6408 101.055 89.7908 100.945 93.1908 100.945C92.4642 98.9589 92.1506 96.8454 92.2692 94.7338C92.3879 92.6223 92.9363 90.5572 93.8808 88.665C94.8488 86.7716 96.1892 85.0933 97.8216 83.7306C99.4541 82.3679 101.345 81.349 103.381 80.735C101.061 73.455 102.481 67.205 108.101 61.645V61.605ZM74.3508 100.965C71.4708 93.695 68.6408 86.845 64.3508 80.795C62.0118 77.5671 59.3034 74.6238 56.2808 72.025C53.4808 69.575 50.1608 69.935 47.0608 72.025C43.5108 74.385 42.6608 77.835 43.3008 81.755C44.4208 88.615 47.9208 94.435 51.6508 100.125C51.8227 100.358 52.0414 100.552 52.2929 100.695C52.5443 100.838 52.823 100.926 53.1108 100.955C60.0508 100.985 66.9908 100.965 74.3508 100.965ZM80.1008 39.655H102.151V32.575H80.1008V39.655Z" fill="#C9C9C9"/>
<path d="M74.6309 135.945C74.6309 133.165 74.6309 130.395 74.6309 127.615C74.6309 124.835 76.2809 123.265 78.4809 123.365C80.6809 123.465 81.9709 125.045 82.0209 127.645C82.1509 134.045 81.9009 140.465 82.4509 146.825C84.0709 165.575 100.141 181.965 118.791 184.275C142.591 187.275 163.091 172.455 167.231 148.855C168.311 142.695 167.791 136.255 168.001 129.945C168.001 128.945 168.001 127.945 168.001 126.945C168.008 126.003 168.38 125.1 169.038 124.425C169.696 123.751 170.589 123.356 171.531 123.325C172.472 123.294 173.39 123.629 174.091 124.259C174.791 124.889 175.222 125.765 175.291 126.705C175.471 128.775 175.361 130.865 175.381 132.945C175.431 140.885 175.531 148.805 173.161 156.545C169.794 167.428 162.851 176.856 153.456 183.299C144.062 189.742 132.766 192.824 121.401 192.045C98.5009 190.505 79.1309 173.045 75.4609 150.455C74.6909 145.685 75.0009 140.775 74.6309 135.945Z" fill="#C9C9C9"/>
</svg>
