<svg width="18" height="18" viewBox="0 0 18 18" fill="none" xmlns="http://www.w3.org/2000/svg">
<path d="M6.74989 14.25C6.8486 14.2506 6.94644 14.2316 7.03782 14.1943C7.1292 14.157 7.21231 14.102 7.28239 14.0325L11.7824 9.53249C11.9221 9.39197 12.0005 9.20188 12.0005 9.00374C12.0005 8.8056 11.9221 8.61551 11.7824 8.47499L7.28239 3.97499C7.13892 3.85212 6.95436 3.78792 6.7656 3.79521C6.57685 3.8025 6.39779 3.88075 6.26422 4.01432C6.13065 4.14789 6.0524 4.32694 6.04511 4.5157C6.03782 4.70446 6.10202 4.88901 6.22489 5.03249L10.1924 8.99999L6.22489 12.9675C6.11958 13.0719 6.0476 13.2053 6.01806 13.3506C5.98852 13.496 6.00275 13.6469 6.05894 13.7841C6.11514 13.9214 6.21077 14.0389 6.33376 14.1219C6.45675 14.2048 6.60156 14.2494 6.74989 14.25Z" fill="black"/>
</svg>
