<svg width="6" height="12" viewBox="0 0 6 12" fill="none" xmlns="http://www.w3.org/2000/svg">
<path d="M0.749893 11.25C0.848598 11.2506 0.946444 11.2317 1.03782 11.1943C1.1292 11.157 1.21231 11.102 1.28239 11.0325L5.78239 6.53251C5.92208 6.39198 6.00049 6.20189 6.00049 6.00376C6.00049 5.80562 5.92208 5.61553 5.78239 5.47501L1.28239 0.975005C1.13892 0.852135 0.95436 0.787931 0.765604 0.795221C0.576846 0.802512 0.397792 0.880761 0.264221 1.01433C0.13065 1.1479 0.0524005 1.32696 0.0451097 1.51571C0.0378188 1.70447 0.102024 1.88903 0.224893 2.0325L4.19239 6.00001L0.224893 9.96751C0.119577 10.072 0.0475985 10.2053 0.0180594 10.3507C-0.0114797 10.496 0.00274763 10.6469 0.0589419 10.7841C0.115136 10.9214 0.210774 11.0389 0.333761 11.1219C0.456749 11.2048 0.601563 11.2494 0.749893 11.25Z" fill="white"/>
</svg>
