<svg width="6" height="11" viewBox="0 0 6 11" fill="none" xmlns="http://www.w3.org/2000/svg">
<path d="M0.746963 10.4553C0.845668 10.4559 0.943514 10.437 1.03489 10.3997C1.12627 10.3623 1.20938 10.3074 1.27946 10.2378L5.77946 5.73784C5.91915 5.59732 5.99756 5.40723 5.99756 5.20909C5.99756 5.01095 5.91915 4.82086 5.77946 4.68034L1.27946 0.180342C1.13599 0.0574726 0.951431 -0.00673197 0.762674 0.000558879C0.573917 0.00784973 0.394862 0.0860987 0.261291 0.21967C0.127721 0.35324 0.0494709 0.532295 0.04218 0.721052C0.0348891 0.909809 0.099094 1.09437 0.221964 1.23784L4.18946 5.20534L0.221963 9.17284C0.116647 9.2773 0.0446686 9.41063 0.0151297 9.55599C-0.0144092 9.70135 -0.000181948 9.85221 0.0560122 9.98948C0.112206 10.1268 0.207844 10.2443 0.330832 10.3272C0.453819 10.4101 0.598633 10.4547 0.746963 10.4553Z" fill="#9DC45A"/>
</svg>
