<svg width="32" height="32" viewBox="0 0 32 32" fill="none" xmlns="http://www.w3.org/2000/svg">
<g clip-path="url(#clip0_375_192)">
<path d="M7.02132 13.02C7.64517 11.1326 8.84914 9.49042 10.4615 8.32773C12.0738 7.16505 14.0122 6.54125 16 6.54533C18.2533 6.54533 20.2907 7.34533 21.8907 8.65467L26.5467 4C23.7093 1.52667 20.0733 0 16 0C9.69332 0 4.26399 3.59733 1.65332 8.86667L7.02132 13.02Z" fill="#EA4335"/>
<path d="M21.3867 24.0173C19.9334 24.9547 18.088 25.4547 16 25.4547C14.0201 25.4587 12.0891 24.8399 10.4803 23.6858C8.87158 22.5317 7.66661 20.9008 7.03602 19.024L1.64935 23.1133C2.97101 25.7884 5.01638 28.0392 7.55312 29.6101C10.0899 31.1809 13.0163 32.0089 16 32C19.9107 32 23.6467 30.6093 26.4454 28L21.388 24.0173H21.3867Z" fill="#34A853"/>
<path d="M26.4453 28C29.372 25.2693 31.272 21.2053 31.272 16C31.272 15.0533 31.1267 14.036 30.9093 13.0907H16V19.2733H24.5813C24.1587 21.352 23.0213 22.9613 21.388 24.0173L26.4453 28Z" fill="#4A90E2"/>
<path d="M7.03597 19.024C6.70978 18.0492 6.54407 17.0279 6.5453 16C6.5453 14.9573 6.71197 13.956 7.0213 13.02L1.65331 8.86667C0.555143 11.0836 -0.0109564 13.526 -2.78328e-05 16C-2.78328e-05 18.56 0.593305 20.9733 1.64931 23.1133L7.03597 19.024Z" fill="#FBBC05"/>
</g>
<defs>
<clipPath id="clip0_375_192">
<rect width="32" height="32" fill="white"/>
</clipPath>
</defs>
</svg>
