<svg width="47" height="47" viewBox="0 0 47 47" fill="none" xmlns="http://www.w3.org/2000/svg">
<rect width="47" height="47" rx="5" fill="#9DC45A" fill-opacity="0.1"/>
<path d="M17.945 23.3928C17.9456 23.0333 17.9134 22.6745 17.8488 22.3202H12.583V24.3506H15.5983C15.5366 24.6747 15.406 24.9836 15.2145 25.2588C15.0229 25.5339 14.7743 25.7695 14.4837 25.9514V27.2728H16.2836C17.3375 26.3553 17.945 24.9978 17.945 23.3928Z" fill="#4285F4"/>
<path d="M12.584 28.5463C14.0895 28.5463 15.3601 28.0787 16.2846 27.2729L14.4847 25.9541C13.9833 26.2764 13.339 26.4585 12.584 26.4585C11.1281 26.4585 9.89157 25.5316 9.4496 24.2824H7.5957V25.6412C8.06024 26.5145 8.77274 27.2487 9.65363 27.7617C10.5345 28.2747 11.5491 28.5464 12.584 28.5463Z" fill="#34A853"/>
<path d="M9.44919 24.2824C9.21547 23.6277 9.21547 22.9188 9.44919 22.2642V20.9051H7.5953C7.20387 21.64 7 22.4513 7 23.2739C7 24.0966 7.20387 24.9078 7.5953 25.6427L9.44919 24.2824Z" fill="#FBBC04"/>
<path d="M12.584 20.0881C13.38 20.0758 14.1491 20.3596 14.7253 20.8783L16.3201 19.3739C15.3093 18.4777 13.9705 17.9855 12.584 18.0003C11.5492 18.0005 10.5348 18.2722 9.65394 18.7852C8.77312 19.2981 8.06053 20.032 7.5957 20.9051L9.4496 22.2642C9.89157 21.015 11.1281 20.0881 12.584 20.0881Z" fill="#EA4335"/>
<path d="M23.0416 23.4637V27.1791H21.7925V18.0007H25.103C25.4983 17.9926 25.8914 18.0587 26.2594 18.1951C26.6275 18.3314 26.9633 18.5354 27.2473 18.7951C27.5298 19.0435 27.755 19.3442 27.909 19.6784C28.0631 20.0126 28.1425 20.3732 28.1425 20.7377C28.1425 21.1022 28.0631 21.4627 27.909 21.7969C27.755 22.1312 27.5298 22.4318 27.2473 22.6803C26.6681 23.2019 25.9533 23.4623 25.103 23.4615H23.0409L23.0416 23.4637ZM23.0416 19.1319V22.3364H25.1351C25.4673 22.3421 25.7939 22.2554 26.0742 22.087C26.3545 21.9186 26.5761 21.6759 26.7113 21.3894C26.8465 21.1028 26.8893 20.785 26.8344 20.4755C26.7795 20.1661 26.6294 19.8788 26.4026 19.6495C26.3914 19.6385 26.3815 19.6279 26.3685 19.6172C26.211 19.4581 26.0194 19.3324 25.8065 19.2485C25.5937 19.1646 25.3643 19.1244 25.1337 19.1306L23.0416 19.1319ZM31.0213 20.6953C31.9447 20.6953 32.6727 20.928 33.2056 21.3934C33.7385 21.8587 34.0053 22.4972 34.0059 23.3087V27.1791H32.8114V26.3089H32.7578C32.2407 27.0269 31.5527 27.3858 30.694 27.3853C29.9619 27.3853 29.3491 27.1802 28.8558 26.7701C28.6193 26.5817 28.4302 26.346 28.3022 26.0799C28.1743 25.8139 28.1108 25.5243 28.1163 25.2321C28.1163 24.582 28.3764 24.0652 28.8968 23.6819C29.4172 23.2986 30.1111 23.1065 30.9787 23.1057C31.7196 23.1057 32.3316 23.2346 32.8101 23.4895V23.2194C32.8115 23.0203 32.766 22.8234 32.6769 22.643C32.5877 22.4625 32.4572 22.3031 32.2947 22.1762C31.9644 21.8949 31.534 21.7416 31.0893 21.7469C30.3923 21.7469 29.8405 22.0246 29.4337 22.58L28.3364 21.9245C28.9396 21.1046 29.8342 20.6949 31.0203 20.6953H31.0213ZM29.4053 25.2573C29.4047 25.4071 29.4418 25.555 29.5137 25.6886C29.5856 25.8222 29.6901 25.9377 29.8186 26.0256C30.0949 26.2306 30.4376 26.3393 30.7889 26.3334C31.3155 26.332 31.8202 26.1341 32.193 25.7829C32.6066 25.4151 32.8134 24.9835 32.8131 24.4883C32.4236 24.1954 31.8807 24.0488 31.1845 24.0484C30.6773 24.0484 30.2543 24.1637 29.9156 24.3945C29.5743 24.6301 29.4036 24.915 29.4036 25.2573H29.4053ZM40.8618 20.9012L36.6936 29.9478H35.4049L36.9513 26.782L34.2093 20.9012H35.5663L37.5458 25.4132H37.5728L39.5004 20.9012H40.8618Z" fill="#5F6368"/>
</svg>
