<svg width="74" height="29" viewBox="0 0 74 29" fill="none" xmlns="http://www.w3.org/2000/svg">
<rect x="0.5" y="0.5" width="73" height="28" rx="14" stroke="white"/>
<path d="M19.5996 11.6H24.3996M19.5996 14.8H22.3996M28.3996 14C28.3996 14.92 28.2055 15.7947 27.856 16.5853L28.4008 20.3994L25.1322 19.5822C24.2062 20.103 23.1376 20.4 21.9996 20.4C18.465 20.4 15.5996 17.5346 15.5996 14C15.5996 10.4654 18.465 7.60001 21.9996 7.60001C25.5342 7.60001 28.3996 10.4654 28.3996 14Z" stroke="white" stroke-linecap="round" stroke-linejoin="round"/>
<path d="M34.852 18V9.6H36.124V13.2H40.192V9.6H41.464V18H40.192V14.244H36.124V18H34.852ZM45.9083 18.144C45.3243 18.144 44.8043 18.016 44.3483 17.76C43.9003 17.496 43.5483 17.132 43.2923 16.668C43.0363 16.204 42.9083 15.664 42.9083 15.048C42.9083 14.424 43.0323 13.876 43.2803 13.404C43.5363 12.932 43.8883 12.564 44.3363 12.3C44.7923 12.036 45.3203 11.904 45.9203 11.904C46.5043 11.904 47.0123 12.036 47.4443 12.3C47.8763 12.556 48.2123 12.9 48.4523 13.332C48.6923 13.764 48.8123 14.24 48.8123 14.76C48.8123 14.84 48.8083 14.928 48.8003 15.024C48.8003 15.112 48.7963 15.212 48.7883 15.324H44.1563C44.1963 15.9 44.3843 16.34 44.7203 16.644C45.0643 16.94 45.4603 17.088 45.9083 17.088C46.2683 17.088 46.5683 17.008 46.8083 16.848C47.0563 16.68 47.2403 16.456 47.3603 16.176H48.6323C48.4723 16.736 48.1523 17.204 47.6723 17.58C47.2003 17.956 46.6123 18.144 45.9083 18.144ZM45.9083 12.948C45.4843 12.948 45.1083 13.076 44.7803 13.332C44.4523 13.58 44.2523 13.956 44.1803 14.46H47.5403C47.5163 13.996 47.3523 13.628 47.0483 13.356C46.7443 13.084 46.3643 12.948 45.9083 12.948ZM50.1321 18V9.36H51.4041V18H50.1321ZM53.0149 20.64V12.048H54.1549L54.2869 12.972C54.4789 12.692 54.7429 12.444 55.0789 12.228C55.4149 12.012 55.8469 11.904 56.3749 11.904C56.9509 11.904 57.4589 12.04 57.8989 12.312C58.3389 12.584 58.6829 12.956 58.9309 13.428C59.1869 13.9 59.3149 14.436 59.3149 15.036C59.3149 15.636 59.1869 16.172 58.9309 16.644C58.6829 17.108 58.3389 17.476 57.8989 17.748C57.4589 18.012 56.9469 18.144 56.3629 18.144C55.8989 18.144 55.4869 18.052 55.1269 17.868C54.7749 17.684 54.4949 17.424 54.2869 17.088V20.64H53.0149ZM56.1469 17.04C56.6909 17.04 57.1389 16.856 57.4909 16.488C57.8429 16.112 58.0189 15.624 58.0189 15.024C58.0189 14.632 57.9389 14.284 57.7789 13.98C57.6189 13.676 57.3989 13.44 57.1189 13.272C56.8389 13.096 56.5149 13.008 56.1469 13.008C55.6029 13.008 55.1549 13.196 54.8029 13.572C54.4589 13.948 54.2869 14.432 54.2869 15.024C54.2869 15.624 54.4589 16.112 54.8029 16.488C55.1549 16.856 55.6029 17.04 56.1469 17.04Z" fill="white"/>
</svg>
