<svg width="47" height="47" viewBox="0 0 47 47" fill="none" xmlns="http://www.w3.org/2000/svg">
<rect width="47" height="47" rx="5" fill="#9DC45A" fill-opacity="0.1"/>
<path d="M21.0669 31.8V25.105C21.0669 24.4887 21.5922 23.9891 22.2402 23.9891H25.7602C26.4082 23.9891 26.9335 24.4887 26.9335 25.105V31.8M23.3202 14.4065L15.6936 19.5641C15.384 19.7734 15.2002 20.1123 15.2002 20.4735V30.1262C15.2002 31.0506 15.9882 31.8 16.9602 31.8H31.0402C32.0122 31.8 32.8002 31.0506 32.8002 30.1262V20.4735C32.8002 20.1123 32.6164 19.7734 32.3068 19.5641L24.6802 14.4065C24.2731 14.1312 23.7273 14.1312 23.3202 14.4065Z" stroke="#9DC45A" stroke-width="1.5" stroke-linecap="round"/>
</svg>
