<svg width="24" height="24" viewBox="0 0 24 24" fill="none" xmlns="http://www.w3.org/2000/svg">
<path d="M22.4359 11.134C22.4354 11.1335 22.4349 11.133 22.4345 11.1325L13.8672 2.56653C13.5021 2.20123 13.0166 2 12.5001 2C11.9837 2 11.4982 2.20107 11.1329 2.56637L2.57013 11.1281C2.56725 11.1309 2.56436 11.134 2.56148 11.1369C1.81159 11.891 1.81287 13.1146 2.56517 13.8668C2.90887 14.2106 3.36281 14.4098 3.84816 14.4306C3.86786 14.4325 3.88773 14.4335 3.90776 14.4335H4.24922V20.7376C4.24922 21.985 5.2643 23 6.5122 23H9.86397C10.2037 23 10.4793 22.7246 10.4793 22.3848V17.4424C10.4793 16.8731 10.9423 16.4101 11.5116 16.4101H13.4886C14.0579 16.4101 14.521 16.8731 14.521 17.4424V22.3848C14.521 22.7246 14.7964 23 15.1363 23H18.4881C19.736 23 20.751 21.985 20.751 20.7376V14.4335H21.0677C21.5839 14.4335 22.0694 14.2324 22.4349 13.8671C23.188 13.1136 23.1884 11.888 22.4359 11.134V11.134Z" fill="#9DC45A"/>
</svg>
