<svg width="30" height="30" viewBox="0 0 30 30" fill="none" xmlns="http://www.w3.org/2000/svg">
<rect width="30" height="30" rx="5" fill="#F5F8EF"/>
<path d="M26.8474 21.7781H26.0004V8.42761L27.0242 8.2074C27.1353 8.18656 27.2411 8.14368 27.3354 8.0813C27.4297 8.01892 27.5105 7.9383 27.5732 7.84418C27.6358 7.75007 27.679 7.64437 27.7001 7.53331C27.7213 7.42225 27.7199 7.30808 27.6963 7.19754C27.6726 7.08699 27.627 6.98231 27.5622 6.88965C27.4975 6.79699 27.4148 6.71824 27.3191 6.65804C27.2234 6.59784 27.1167 6.5574 27.0051 6.53911C26.8935 6.52082 26.7794 6.52505 26.6695 6.55155L2.95415 11.6334C2.74984 11.6775 2.56905 11.7956 2.44655 11.9649C2.32405 12.1343 2.26849 12.3429 2.29056 12.5508C2.31263 12.7586 2.41077 12.951 2.56611 13.0908C2.72144 13.2307 2.923 13.3081 3.13201 13.3083C3.19215 13.3082 3.25212 13.3018 3.31094 13.2893L3.97899 13.1463V21.7781H3.13201C2.90738 21.7781 2.69195 21.8673 2.53311 22.0262C2.37427 22.185 2.28503 22.4004 2.28503 22.6251C2.28503 22.8497 2.37427 23.0651 2.53311 23.224C2.69195 23.3828 2.90738 23.4721 3.13201 23.4721H26.8474C27.072 23.4721 27.2875 23.3828 27.4463 23.224C27.6051 23.0651 27.6944 22.8497 27.6944 22.6251C27.6944 22.4004 27.6051 22.185 27.4463 22.0262C27.2875 21.8673 27.072 21.7781 26.8474 21.7781ZM5.67295 12.779L24.3065 8.79075V21.7781H21.7655V15.8493C21.7655 15.6246 21.6763 15.4092 21.5175 15.2504C21.3586 15.0915 21.1432 15.0023 20.9186 15.0023H9.06086C8.83623 15.0023 8.62079 15.0915 8.46195 15.2504C8.30312 15.4092 8.21388 15.6246 8.21388 15.8493V21.7781H5.67295V12.779ZM20.0716 18.3902H9.90784V16.6962H20.0716V18.3902ZM9.90784 20.0841H20.0716V21.7781H9.90784V20.0841Z" fill="#A2C668"/>
</svg>
