<svg width="22" height="22" viewBox="0 0 22 22" fill="none" xmlns="http://www.w3.org/2000/svg">
<path d="M13.3743 3.1451C13.4912 2.75832 13.9011 2.53683 14.277 2.68509C16.0561 3.38674 17.57 4.64378 18.5871 6.27863C19.7336 8.12134 20.1706 10.3181 19.8165 12.4591C19.4625 14.6 18.3416 16.5389 16.663 17.9138C14.9845 19.2887 12.8629 20.0057 10.6943 19.9311C8.52568 19.8564 6.45813 18.9953 4.87748 17.5082C3.29682 16.0211 2.31106 14.0098 2.10414 11.8496C1.89722 9.68931 2.48328 7.52772 3.75295 5.76815C4.87941 4.20707 6.47567 3.05706 8.2985 2.47936C8.68369 2.35728 9.07742 2.60643 9.16765 3.00034C9.25788 3.39422 9.01011 3.78316 8.62695 3.91139C7.14999 4.40566 5.85799 5.35174 4.9395 6.62462C3.87771 8.09609 3.38761 9.90376 3.56065 11.7103C3.73369 13.5169 4.55805 15.1989 5.8799 16.4424C7.20175 17.686 8.93078 18.4062 10.7443 18.4686C12.5579 18.531 14.3321 17.9314 15.7358 16.7816C17.1395 15.6318 18.0769 14.0104 18.3729 12.22C18.669 10.4296 18.3036 8.59252 17.3449 7.05152C16.5155 5.71848 15.2912 4.68581 13.8515 4.09117C13.478 3.93691 13.2574 3.53186 13.3743 3.1451Z" fill="#FE5B5B"/>
<rect x="10" y="2.00018" width="2" height="10" rx="1" fill="#FE5B5B"/>
</svg>
