<svg width="24" height="24" viewBox="0 0 24 24" fill="none" xmlns="http://www.w3.org/2000/svg">
<path d="M15.35 6C15.35 7.85015 13.8502 9.35 12 9.35V10.65C14.5681 10.65 16.65 8.56812 16.65 6H15.35ZM12 9.35C10.1498 9.35 8.65 7.85015 8.65 6H7.35C7.35 8.56812 9.43188 10.65 12 10.65V9.35ZM8.65 6C8.65 4.14985 10.1498 2.65 12 2.65V1.35C9.43188 1.35 7.35 3.43188 7.35 6H8.65ZM12 2.65C13.8502 2.65 15.35 4.14985 15.35 6H16.65C16.65 3.43188 14.5681 1.35 12 1.35V2.65ZM9 13.65H15V12.35H9V13.65ZM15 20.35H9V21.65H15V20.35ZM9 20.35C7.14985 20.35 5.65 18.8502 5.65 17H4.35C4.35 19.5681 6.43188 21.65 9 21.65V20.35ZM18.35 17C18.35 18.8502 16.8502 20.35 15 20.35V21.65C17.5681 21.65 19.65 19.5681 19.65 17H18.35ZM15 13.65C16.8502 13.65 18.35 15.1498 18.35 17H19.65C19.65 14.4319 17.5681 12.35 15 12.35V13.65ZM9 12.35C6.43188 12.35 4.35 14.4319 4.35 17H5.65C5.65 15.1498 7.14985 13.65 9 13.65V12.35Z" fill="#9D9D9D"/>
</svg>
