<svg width="25" height="25" viewBox="0 0 25 25" fill="none" xmlns="http://www.w3.org/2000/svg">
<rect x="0.71582" y="0.735352" width="23.3418" height="23.3418" rx="5" fill="#F5F8EF"/>
<path d="M20.301 17.6637H19.1704V9.74945C19.1704 9.4496 19.0512 9.16202 18.8392 8.94999C18.6272 8.73796 18.3396 8.61885 18.0398 8.61885H13.5173V5.22704C13.5175 5.0223 13.462 4.82138 13.3569 4.6457C13.2517 4.47002 13.1009 4.32619 12.9204 4.22956C12.7399 4.13293 12.5365 4.08712 12.332 4.09703C12.1275 4.10694 11.9296 4.17219 11.7593 4.28581L6.10625 8.05355C5.95117 8.15701 5.82409 8.29722 5.73631 8.46168C5.64853 8.62614 5.60278 8.80976 5.60313 8.99619V17.6637H4.47253C4.3226 17.6637 4.17881 17.7232 4.0728 17.8292C3.96678 17.9353 3.90723 18.079 3.90723 18.229C3.90723 18.3789 3.96678 18.5227 4.0728 18.6287C4.17881 18.7347 4.3226 18.7943 4.47253 18.7943H20.301C20.4509 18.7943 20.5947 18.7347 20.7007 18.6287C20.8067 18.5227 20.8663 18.3789 20.8663 18.229C20.8663 18.079 20.8067 17.9353 20.7007 17.8292C20.5947 17.7232 20.4509 17.6637 20.301 17.6637ZM18.0398 9.74945V17.6637H13.5173V9.74945H18.0398ZM6.73373 8.99619L12.3867 5.22704V17.6637H6.73373V8.99619ZM11.2561 10.8801V12.0107C11.2561 12.1606 11.1966 12.3044 11.0906 12.4104C10.9846 12.5164 10.8408 12.576 10.6908 12.576C10.5409 12.576 10.3971 12.5164 10.2911 12.4104C10.1851 12.3044 10.1255 12.1606 10.1255 12.0107V10.8801C10.1255 10.7301 10.1851 10.5863 10.2911 10.4803C10.3971 10.3743 10.5409 10.3148 10.6908 10.3148C10.8408 10.3148 10.9846 10.3743 11.0906 10.4803C11.1966 10.5863 11.2561 10.7301 11.2561 10.8801ZM8.99494 10.8801V12.0107C8.99494 12.1606 8.93538 12.3044 8.82936 12.4104C8.72335 12.5164 8.57956 12.576 8.42964 12.576C8.27971 12.576 8.13592 12.5164 8.02991 12.4104C7.92389 12.3044 7.86433 12.1606 7.86433 12.0107V10.8801C7.86433 10.7301 7.92389 10.5863 8.02991 10.4803C8.13592 10.3743 8.27971 10.3148 8.42964 10.3148C8.57956 10.3148 8.72335 10.3743 8.82936 10.4803C8.93538 10.5863 8.99494 10.7301 8.99494 10.8801ZM8.99494 14.8372V15.9678C8.99494 16.1177 8.93538 16.2615 8.82936 16.3675C8.72335 16.4735 8.57956 16.5331 8.42964 16.5331C8.27971 16.5331 8.13592 16.4735 8.02991 16.3675C7.92389 16.2615 7.86433 16.1177 7.86433 15.9678V14.8372C7.86433 14.6872 7.92389 14.5434 8.02991 14.4374C8.13592 14.3314 8.27971 14.2719 8.42964 14.2719C8.57956 14.2719 8.72335 14.3314 8.82936 14.4374C8.93538 14.5434 8.99494 14.6872 8.99494 14.8372ZM11.2561 14.8372V15.9678C11.2561 16.1177 11.1966 16.2615 11.0906 16.3675C10.9846 16.4735 10.8408 16.5331 10.6908 16.5331C10.5409 16.5331 10.3971 16.4735 10.2911 16.3675C10.1851 16.2615 10.1255 16.1177 10.1255 15.9678V14.8372C10.1255 14.6872 10.1851 14.5434 10.2911 14.4374C10.3971 14.3314 10.5409 14.2719 10.6908 14.2719C10.8408 14.2719 10.9846 14.3314 11.0906 14.4374C11.1966 14.5434 11.2561 14.6872 11.2561 14.8372Z" fill="#A2C668"/>
</svg>
