<svg width="209" height="192" viewBox="0 0 209 192" fill="none" xmlns="http://www.w3.org/2000/svg">
<ellipse cx="104" cy="99.5" rx="56" ry="55.5" fill="#9DC45A"/>
<path d="M104 164.5C139.641 164.5 168.5 135.38 168.5 99.5C168.5 63.6205 139.641 34.5 104 34.5C68.3587 34.5 39.5 63.6205 39.5 99.5C39.5 135.38 68.3587 164.5 104 164.5Z" stroke="#9DC45A" stroke-width="5"/>
<path d="M97.5457 123.038L138.946 85.2549C140.351 83.9719 140.351 81.8916 138.946 80.6087L133.855 75.9624C132.449 74.6792 130.169 74.6792 128.763 75.9624L95 106.776L79.2367 92.3895C77.8309 91.1065 75.5515 91.1065 74.1454 92.3895L69.0544 97.0358C67.6486 98.3188 67.6486 100.399 69.0544 101.682L92.4544 123.038C93.8604 124.321 96.1396 124.321 97.5457 123.038Z" fill="white"/>
<path d="M28.0547 166.91C28.5346 166.901 28.9404 166.553 29.0215 166.079C29.487 163.363 29.2543 160.619 28.5079 158.4C27.7783 156.231 26.4691 154.329 24.595 153.704C23.0608 153.193 21.6378 153.428 20.5586 154.258C19.5095 155.064 18.8995 156.342 18.7458 157.725C18.435 160.522 19.9388 163.921 23.8109 165.971C25.1333 166.671 26.5833 166.938 28.0547 166.91Z" stroke="#F99C32" stroke-width="2" stroke-linecap="round" stroke-linejoin="round"/>
<path d="M207.513 36.7304C205.426 38.1217 200.751 42.6574 198.748 49.6696C196.244 58.4348 190.818 59.687 182.47 60.9391" stroke="#9DC45A" stroke-width="2" stroke-linecap="round" stroke-linejoin="round"/>
<circle cx="120.696" cy="7.51304" r="7.51304" fill="#9DC45A"/>
<circle cx="149.079" cy="186.157" r="5.84348" fill="#FFB27D"/>
<circle cx="117.504" cy="181.504" r="2.50435" fill="#9DC45A"/>
<circle cx="156.174" cy="26.1739" r="4.17391" fill="#F7A9A0"/>
<circle cx="195.827" cy="121.043" r="5.92826" stroke="#9DC45A" stroke-width="1.5"/>
<circle cx="39.7224" cy="30.0522" r="5.09348" stroke="#FFB93E" stroke-width="1.5"/>
<circle cx="3.9873" cy="87.813" r="2.75" stroke="#F7A9A0" stroke-width="1.5"/>
</svg>
