<svg width="22" height="22" viewBox="0 0 22 22" fill="none" xmlns="http://www.w3.org/2000/svg">
<path fill-rule="evenodd" clip-rule="evenodd" d="M10.9998 2.52084C9.86069 2.52084 8.93727 3.44426 8.93727 4.58334V4.81661C9.31998 4.8125 9.73312 4.81251 10.1796 4.81251H11.82C12.2664 4.81251 12.6796 4.8125 13.0623 4.81661V4.58334C13.0623 3.44426 12.1389 2.52084 10.9998 2.52084ZM14.4373 4.8647V4.58334C14.4373 2.68486 12.8983 1.14584 10.9998 1.14584C9.10129 1.14584 7.56227 2.68486 7.56227 4.58334V4.8647C7.43852 4.87373 7.31911 4.88432 7.20383 4.89675C6.39867 4.98353 5.72534 5.16532 5.12741 5.57515C4.92176 5.7161 4.72859 5.87446 4.55004 6.04848C4.03091 6.55443 3.72059 7.17903 3.47759 7.95153C3.24167 8.70154 3.05099 9.65495 2.8114 10.853L2.79391 10.9404C2.44866 12.6666 2.1766 14.0269 2.09846 15.1103C2.01862 16.2173 2.13019 17.1486 2.65455 17.9556C2.82951 18.2249 3.03372 18.474 3.26345 18.6984C3.95199 19.3708 4.84331 19.6629 5.94446 19.8017C7.02218 19.9375 8.40938 19.9375 10.1698 19.9375H11.8298C13.5902 19.9375 14.9774 19.9375 16.0551 19.8017C17.1562 19.6629 18.0476 19.3708 18.7361 18.6984C18.9658 18.474 19.17 18.2249 19.345 17.9556C19.8694 17.1486 19.9809 16.2173 19.9011 15.1103C19.823 14.0269 19.5509 12.6666 19.2057 10.9405L19.1882 10.853C18.9486 9.65497 18.7579 8.70155 18.522 7.95153C18.279 7.17903 17.9686 6.55443 17.4495 6.04848C17.271 5.87446 17.0778 5.7161 16.8721 5.57515C16.2742 5.16532 15.6009 4.98353 14.7957 4.89675C14.6804 4.88432 14.561 4.87373 14.4373 4.8647ZM7.35118 6.26383C6.6667 6.3376 6.24383 6.47692 5.90477 6.70932C5.76406 6.80576 5.6319 6.91411 5.50973 7.03317C5.21535 7.32007 4.99581 7.7074 4.78923 8.36413C4.57812 9.03524 4.40106 9.91582 4.15192 11.1615C3.79483 12.9469 3.54107 14.2224 3.4699 15.2092C3.39969 16.1826 3.51823 16.7612 3.80755 17.2065C3.92726 17.3907 4.06698 17.5612 4.22417 17.7147C4.60407 18.0857 5.14814 18.3154 6.11643 18.4375C7.09809 18.5612 8.39849 18.5625 10.2193 18.5625H11.7803C13.6011 18.5625 14.9015 18.5612 15.8831 18.4375C16.8514 18.3154 17.3955 18.0857 17.7754 17.7147C17.9326 17.5612 18.0723 17.3907 18.192 17.2065C18.4813 16.7612 18.5999 16.1826 18.5297 15.2092C18.4585 14.2224 18.2047 12.9469 17.8476 11.1615C17.5985 9.91582 17.4214 9.03524 17.2103 8.36413C17.0037 7.7074 16.7842 7.32007 16.4898 7.03317C16.3677 6.91411 16.2355 6.80576 16.0948 6.70932C15.7557 6.47692 15.3328 6.3376 14.6484 6.26383C13.9489 6.18844 13.0507 6.18751 11.7803 6.18751H10.2193C8.94887 6.18751 8.05066 6.18844 7.35118 6.26383ZM8.17732 13.1018C8.53532 12.9753 8.9281 13.1629 9.05463 13.5209C9.3381 14.3229 10.103 14.8958 11 14.8958C11.8969 14.8958 12.6618 14.3229 12.9453 13.5209C13.0718 13.1629 13.4646 12.9753 13.8226 13.1018C14.1806 13.2283 14.3682 13.6211 14.2417 13.9791C13.7701 15.3133 12.4977 16.2708 11 16.2708C9.50217 16.2708 8.2298 15.3133 7.75823 13.9791C7.6317 13.6211 7.81933 13.2283 8.17732 13.1018Z" fill="black"/>
</svg>
