<svg width="24" height="25" viewBox="0 0 24 25" fill="none" xmlns="http://www.w3.org/2000/svg">
<rect x="0.168945" y="0.735352" width="23.3418" height="23.3418" rx="5" fill="#F5F8EF"/>
<path d="M10.2998 8.12021C9.81483 8.12021 9.34075 8.26402 8.93751 8.53345C8.53427 8.80289 8.21999 9.18585 8.0344 9.6339C7.84881 10.082 7.80025 10.575 7.89486 11.0506C7.98947 11.5263 8.22301 11.9632 8.56594 12.3061C8.90886 12.6491 9.34578 12.8826 9.82143 12.9772C10.2971 13.0718 10.7901 13.0233 11.2382 12.8377C11.6862 12.6521 12.0692 12.3378 12.3386 11.9346C12.6081 11.5313 12.7519 11.0572 12.7519 10.5723C12.7519 9.92194 12.4935 9.29825 12.0337 8.8384C11.5738 8.37855 10.9501 8.12021 10.2998 8.12021ZM10.2998 12.0435C10.0088 12.0435 9.72437 11.9572 9.48243 11.7956C9.24049 11.6339 9.05191 11.4041 8.94056 11.1353C8.82921 10.8665 8.80007 10.5706 8.85684 10.2852C8.91361 9.99985 9.05373 9.7377 9.25948 9.53194C9.46524 9.32619 9.72739 9.18607 10.0128 9.1293C10.2982 9.07253 10.594 9.10167 10.8628 9.21302C11.1317 9.32438 11.3614 9.51295 11.5231 9.75489C11.6848 9.99683 11.771 10.2813 11.771 10.5723C11.771 10.9625 11.616 11.3367 11.3401 11.6126C11.0642 11.8885 10.69 12.0435 10.2998 12.0435ZM10.2998 5.17773C8.86958 5.17936 7.49841 5.74823 6.48709 6.75955C5.47577 7.77087 4.9069 9.14205 4.90527 10.5723C4.90527 12.4971 5.79476 14.5372 7.47994 16.4725C8.23714 17.347 9.08938 18.1345 10.0209 18.8204C10.1033 18.8781 10.2016 18.9091 10.3023 18.9091C10.4029 18.9091 10.5012 18.8781 10.5836 18.8204C11.5134 18.1342 12.364 17.3468 13.1197 16.4725C14.8024 14.5372 15.6943 12.4971 15.6943 10.5723C15.6927 9.14205 15.1238 7.77087 14.1125 6.75955C13.1012 5.74823 11.73 5.17936 10.2998 5.17773ZM10.2998 17.8058C9.28649 17.0089 5.8861 14.0818 5.8861 10.5723C5.8861 9.40168 6.35111 8.27903 7.17884 7.4513C8.00657 6.62357 9.12922 6.15856 10.2998 6.15856C11.4704 6.15856 12.593 6.62357 13.4208 7.4513C14.2485 8.27903 14.7135 9.40168 14.7135 10.5723C14.7135 14.0806 11.3131 17.0089 10.2998 17.8058Z" fill="#A2C668"/>
<circle cx="14.6279" cy="15.4873" r="4.14648" fill="#F5F8EF"/>
<path d="M17.4028 14.4408L15.0316 12.2025L15.0268 12.198C14.9179 12.0983 14.7755 12.043 14.6278 12.043C14.4801 12.043 14.3377 12.0983 14.2287 12.198L14.2237 12.2025L11.8531 14.4408C11.793 14.4964 11.745 14.5638 11.7121 14.6388C11.6793 14.7138 11.6622 14.7948 11.6621 14.8767V17.6186C11.6621 17.7759 11.7246 17.9268 11.8358 18.0381C11.9471 18.1493 12.098 18.2118 12.2553 18.2118H13.6789C13.8362 18.2118 13.9871 18.1493 14.0983 18.0381C14.2095 17.9268 14.272 17.7759 14.272 17.6186V16.3137H14.9838V17.6186C14.9838 17.7759 15.0463 17.9268 15.1576 18.0381C15.2688 18.1493 15.4197 18.2118 15.577 18.2118H17.0006C17.1579 18.2118 17.3088 18.1493 17.42 18.0381C17.5313 17.9268 17.5938 17.7759 17.5938 17.6186V14.8767C17.5936 14.7948 17.5766 14.7138 17.5437 14.6388C17.5109 14.5638 17.4629 14.4964 17.4028 14.4408ZM16.882 17.5H15.6956V16.195C15.6956 16.1171 15.6803 16.04 15.6505 15.968C15.6207 15.8961 15.577 15.8307 15.5219 15.7756C15.4668 15.7205 15.4014 15.6768 15.3295 15.647C15.2575 15.6172 15.1804 15.6019 15.1025 15.6019H14.1534C13.9961 15.6019 13.8452 15.6644 13.734 15.7756C13.6227 15.8868 13.5602 16.0377 13.5602 16.195V17.5H12.3739V14.928L14.6279 12.8001L16.882 14.928V17.5Z" fill="#A2C668"/>
</svg>
