<svg width="24" height="24" viewBox="0 0 24 24" fill="none" xmlns="http://www.w3.org/2000/svg">
<path fill-rule="evenodd" clip-rule="evenodd" d="M9.95349 14.9767C9.95349 13.8465 10.8697 12.9302 12 12.9302C13.1303 12.9302 14.0465 13.8465 14.0465 14.9767C14.0465 16.107 13.1303 17.0233 12 17.0233C10.8697 17.0233 9.95349 16.107 9.95349 14.9767ZM12 14.0465C11.4862 14.0465 11.0698 14.463 11.0698 14.9767C11.0698 15.4905 11.4862 15.907 12 15.907C12.5138 15.907 12.9302 15.4905 12.9302 14.9767C12.9302 14.463 12.5138 14.0465 12 14.0465Z" fill="#9D9D9D"/>
<path fill-rule="evenodd" clip-rule="evenodd" d="M6.97674 9.99276V9.02326C6.97674 6.24899 9.22573 4 12 4C14.7743 4 17.0233 6.24899 17.0233 9.02326V9.99276C17.1921 10.0046 17.3512 10.0201 17.5008 10.0402C18.1707 10.1303 18.7347 10.3229 19.1826 10.7709C19.6306 11.2188 19.8232 11.7828 19.9133 12.4527C20 13.0978 20 13.9182 20 14.9359V15.0176C20 16.0353 20 16.8557 19.9133 17.5008C19.8232 18.1707 19.6306 18.7347 19.1826 19.1826C18.7347 19.6306 18.1707 19.8232 17.5008 19.9133C16.8557 20 16.0353 20 15.0176 20H8.98242C7.96468 20 7.14435 20 6.49916 19.9133C5.82931 19.8232 5.26532 19.6306 4.81738 19.1826C4.36944 18.7347 4.17677 18.1707 4.08672 17.5008C3.99997 16.8557 3.99999 16.0353 4 15.0176V14.9359C3.99999 13.9182 3.99997 13.0978 4.08672 12.4527C4.17677 11.7828 4.36944 11.2188 4.81738 10.7709C5.26532 10.3229 5.82931 10.1303 6.49916 10.0402C6.64884 10.0201 6.80794 10.0046 6.97674 9.99276ZM8.09302 9.02326C8.09302 6.86549 9.84224 5.11628 12 5.11628C14.1578 5.11628 15.907 6.86549 15.907 9.02326V9.95605C15.629 9.95348 15.3328 9.95348 15.0176 9.95349H8.98242C8.66724 9.95348 8.371 9.95348 8.09302 9.95605V9.02326ZM6.6479 11.1465C6.10184 11.2199 5.81267 11.3542 5.60671 11.5602C5.40074 11.7662 5.26646 12.0553 5.19304 12.6014C5.11747 13.1635 5.11628 13.9085 5.11628 14.9767C5.11628 16.045 5.11747 16.79 5.19304 17.3521C5.26646 17.8982 5.40074 18.1873 5.60671 18.3933C5.81267 18.5993 6.10184 18.7335 6.6479 18.807C7.21003 18.8825 7.95504 18.8837 9.02326 18.8837H14.9767C16.045 18.8837 16.79 18.8825 17.3521 18.807C17.8982 18.7335 18.1873 18.5993 18.3933 18.3933C18.5993 18.1873 18.7335 17.8982 18.807 17.3521C18.8825 16.79 18.8837 16.045 18.8837 14.9767C18.8837 13.9085 18.8825 13.1635 18.807 12.6014C18.7335 12.0553 18.5993 11.7662 18.3933 11.5602C18.1873 11.3542 17.8982 11.2199 17.3521 11.1465C16.79 11.071 16.045 11.0698 14.9767 11.0698H9.02326C7.95504 11.0698 7.21003 11.071 6.6479 11.1465Z" fill="#9D9D9D"/>
</svg>
