<svg width="22" height="22" viewBox="0 0 22 22" fill="none" xmlns="http://www.w3.org/2000/svg">
<path d="M13.9168 5.49999C13.9168 7.11083 12.611 8.41666 11.0002 8.41666V9.91666C13.4394 9.91666 15.4168 7.93925 15.4168 5.49999H13.9168ZM11.0002 8.41666C9.38933 8.41666 8.0835 7.11083 8.0835 5.49999H6.5835C6.5835 7.93925 8.5609 9.91666 11.0002 9.91666V8.41666ZM8.0835 5.49999C8.0835 3.88916 9.38933 2.58333 11.0002 2.58333V1.08333C8.5609 1.08333 6.5835 3.06074 6.5835 5.49999H8.0835ZM11.0002 2.58333C12.611 2.58333 13.9168 3.88916 13.9168 5.49999H15.4168C15.4168 3.06074 13.4394 1.08333 11.0002 1.08333V2.58333ZM8.25016 12.6667H13.7502V11.1667H8.25016V12.6667ZM13.7502 18.5H8.25016V20H13.7502V18.5ZM8.25016 18.5C6.63933 18.5 5.3335 17.1942 5.3335 15.5833H3.8335C3.8335 18.0226 5.8109 20 8.25016 20V18.5ZM16.6668 15.5833C16.6668 17.1942 15.361 18.5 13.7502 18.5V20C16.1894 20 18.1668 18.0226 18.1668 15.5833H16.6668ZM13.7502 12.6667C15.361 12.6667 16.6668 13.9725 16.6668 15.5833H18.1668C18.1668 13.1441 16.1894 11.1667 13.7502 11.1667V12.6667ZM8.25016 11.1667C5.8109 11.1667 3.8335 13.1441 3.8335 15.5833H5.3335C5.3335 13.9725 6.63933 12.6667 8.25016 12.6667V11.1667Z" fill="black"/>
</svg>
