<svg width="97" height="19" viewBox="0 0 97 19" fill="none" xmlns="http://www.w3.org/2000/svg">
<path d="M8.19836 3.50609C8.49771 2.58478 9.80112 2.58478 10.1005 3.50609L10.9455 6.1069C11.0794 6.51893 11.4634 6.79789 11.8966 6.79789H14.6312C15.6 6.79789 16.0027 8.0375 15.219 8.60691L13.0066 10.2143C12.6562 10.4689 12.5095 10.9203 12.6434 11.3323L13.4884 13.9331C13.7878 14.8545 12.7333 15.6206 11.9496 15.0512L9.7372 13.4438C9.38671 13.1891 8.91212 13.1891 8.56163 13.4438L6.34925 15.0512C5.56553 15.6206 4.51105 14.8545 4.8104 13.9331L5.65546 11.3323C5.78933 10.9203 5.64267 10.4689 5.29219 10.2143L3.07981 8.60691C2.29609 8.0375 2.69887 6.79789 3.66759 6.79789H6.40225C6.83547 6.79789 7.21943 6.51893 7.3533 6.1069L8.19836 3.50609Z" fill="#FFD144"/>
<path d="M27.1984 3.50609C27.4977 2.58478 28.8011 2.58478 29.1005 3.50609L29.9455 6.1069C30.0794 6.51893 30.4634 6.79789 30.8966 6.79789H33.6312C34.6 6.79789 35.0027 8.0375 34.219 8.60691L32.0066 10.2143C31.6562 10.4689 31.5095 10.9203 31.6434 11.3323L32.4884 13.9331C32.7878 14.8545 31.7333 15.6206 30.9496 15.0512L28.7372 13.4438C28.3867 13.1891 27.9121 13.1891 27.5616 13.4438L25.3492 15.0512C24.5655 15.6206 23.5111 14.8545 23.8104 13.9331L24.6555 11.3323C24.7893 10.9203 24.6427 10.4689 24.2922 10.2143L22.0798 8.60691C21.2961 8.0375 21.6989 6.79789 22.6676 6.79789H25.4022C25.8355 6.79789 26.2194 6.51893 26.3533 6.1069L27.1984 3.50609Z" fill="#FFD144"/>
<path d="M47.1984 3.50609C47.4977 2.58478 48.8011 2.58478 49.1005 3.50609L49.9455 6.1069C50.0794 6.51893 50.4634 6.79789 50.8966 6.79789H53.6312C54.6 6.79789 55.0027 8.0375 54.219 8.60691L52.0066 10.2143C51.6562 10.4689 51.5095 10.9203 51.6434 11.3323L52.4884 13.9331C52.7878 14.8545 51.7333 15.6206 50.9496 15.0512L48.7372 13.4438C48.3867 13.1891 47.9121 13.1891 47.5616 13.4438L45.3492 15.0512C44.5655 15.6206 43.5111 14.8545 43.8104 13.9331L44.6555 11.3323C44.7893 10.9203 44.6427 10.4689 44.2922 10.2143L42.0798 8.60691C41.2961 8.0375 41.6989 6.79789 42.6676 6.79789H45.4022C45.8355 6.79789 46.2194 6.51893 46.3533 6.1069L47.1984 3.50609Z" fill="#D9D9D9"/>
<path d="M68.1984 3.50609C68.4977 2.58478 69.8011 2.58478 70.1005 3.50609L70.9455 6.1069C71.0794 6.51893 71.4634 6.79789 71.8966 6.79789H74.6312C75.6 6.79789 76.0027 8.0375 75.219 8.60691L73.0066 10.2143C72.6562 10.4689 72.5095 10.9203 72.6434 11.3323L73.4884 13.9331C73.7878 14.8545 72.7333 15.6206 71.9496 15.0512L69.7372 13.4438C69.3867 13.1891 68.9121 13.1891 68.5616 13.4438L66.3492 15.0512C65.5655 15.6206 64.5111 14.8545 64.8104 13.9331L65.6555 11.3323C65.7893 10.9203 65.6427 10.4689 65.2922 10.2143L63.0798 8.60691C62.2961 8.0375 62.6989 6.79789 63.6676 6.79789H66.4022C66.8355 6.79789 67.2194 6.51893 67.3533 6.1069L68.1984 3.50609Z" fill="#D9D9D9"/>
<path d="M86.1984 3.50609C86.4977 2.58478 87.8011 2.58478 88.1005 3.50609L88.9455 6.1069C89.0794 6.51893 89.4634 6.79789 89.8966 6.79789H92.6312C93.6 6.79789 94.0027 8.0375 93.219 8.60691L91.0066 10.2143C90.6562 10.4689 90.5095 10.9203 90.6434 11.3323L91.4884 13.9331C91.7878 14.8545 90.7333 15.6206 89.9496 15.0512L87.7372 13.4438C87.3867 13.1891 86.9121 13.1891 86.5616 13.4438L84.3492 15.0512C83.5655 15.6206 82.5111 14.8545 82.8104 13.9331L83.6555 11.3323C83.7893 10.9203 83.6427 10.4689 83.2922 10.2143L81.0798 8.60691C80.2961 8.0375 80.6989 6.79789 81.6676 6.79789H84.4022C84.8355 6.79789 85.2194 6.51893 85.3533 6.1069L86.1984 3.50609Z" fill="#D9D9D9"/>
</svg>
