<svg width="97" height="19" viewBox="0 0 97 19" fill="none" xmlns="http://www.w3.org/2000/svg">
<path d="M8.19836 3.5934C8.49771 2.67209 9.80112 2.67209 10.1005 3.5934L10.9455 6.19422C11.0794 6.60624 11.4634 6.8852 11.8966 6.8852H14.6312C15.6 6.8852 16.0027 8.12481 15.219 8.69422L13.0066 10.3016C12.6562 10.5562 12.5095 11.0076 12.6434 11.4196L13.4884 14.0205C13.7878 14.9418 12.7333 15.7079 11.9496 15.1385L9.7372 13.5311C9.38671 13.2765 8.91212 13.2765 8.56163 13.5311L6.34925 15.1385C5.56553 15.7079 4.51105 14.9418 4.8104 14.0205L5.65546 11.4196C5.78933 11.0076 5.64267 10.5562 5.29219 10.3016L3.07981 8.69422C2.29609 8.12482 2.69887 6.8852 3.66759 6.8852H6.40225C6.83547 6.8852 7.21943 6.60624 7.3533 6.19422L8.19836 3.5934Z" fill="#FFD144"/>
<path d="M27.1984 3.5934C27.4977 2.67209 28.8011 2.67209 29.1005 3.5934L29.9455 6.19422C30.0794 6.60624 30.4634 6.8852 30.8966 6.8852H33.6312C34.6 6.8852 35.0027 8.12481 34.219 8.69422L32.0066 10.3016C31.6562 10.5562 31.5095 11.0076 31.6434 11.4196L32.4884 14.0205C32.7878 14.9418 31.7333 15.7079 30.9496 15.1385L28.7372 13.5311C28.3867 13.2765 27.9121 13.2765 27.5616 13.5311L25.3492 15.1385C24.5655 15.7079 23.5111 14.9418 23.8104 14.0205L24.6555 11.4196C24.7893 11.0076 24.6427 10.5562 24.2922 10.3016L22.0798 8.69422C21.2961 8.12482 21.6989 6.8852 22.6676 6.8852H25.4022C25.8355 6.8852 26.2194 6.60624 26.3533 6.19422L27.1984 3.5934Z" fill="#FFD144"/>
<path d="M47.1984 3.5934C47.4977 2.67209 48.8011 2.67209 49.1005 3.5934L49.9455 6.19422C50.0794 6.60624 50.4634 6.8852 50.8966 6.8852H53.6312C54.6 6.8852 55.0027 8.12481 54.219 8.69422L52.0066 10.3016C51.6562 10.5562 51.5095 11.0076 51.6434 11.4196L52.4884 14.0205C52.7878 14.9418 51.7333 15.7079 50.9496 15.1385L48.7372 13.5311C48.3867 13.2765 47.9121 13.2765 47.5616 13.5311L45.3492 15.1385C44.5655 15.7079 43.5111 14.9418 43.8104 14.0205L44.6555 11.4196C44.7893 11.0076 44.6427 10.5562 44.2922 10.3016L42.0798 8.69422C41.2961 8.12482 41.6989 6.8852 42.6676 6.8852H45.4022C45.8355 6.8852 46.2194 6.60624 46.3533 6.19422L47.1984 3.5934Z" fill="#FFD144"/>
<path d="M68.1984 3.5934C68.4977 2.67209 69.8011 2.67209 70.1005 3.5934L70.9455 6.19422C71.0794 6.60624 71.4634 6.8852 71.8966 6.8852H74.6312C75.6 6.8852 76.0027 8.12481 75.219 8.69422L73.0066 10.3016C72.6562 10.5562 72.5095 11.0076 72.6434 11.4196L73.4884 14.0205C73.7878 14.9418 72.7333 15.7079 71.9496 15.1385L69.7372 13.5311C69.3867 13.2765 68.9121 13.2765 68.5616 13.5311L66.3492 15.1385C65.5655 15.7079 64.5111 14.9418 64.8104 14.0205L65.6555 11.4196C65.7893 11.0076 65.6427 10.5562 65.2922 10.3016L63.0798 8.69422C62.2961 8.12482 62.6989 6.8852 63.6676 6.8852H66.4022C66.8355 6.8852 67.2194 6.60624 67.3533 6.19422L68.1984 3.5934Z" fill="#FFD144"/>
<path d="M86.1984 3.5934C86.4977 2.67209 87.8011 2.67209 88.1005 3.5934L88.9455 6.19422C89.0794 6.60624 89.4634 6.8852 89.8966 6.8852H92.6312C93.6 6.8852 94.0027 8.12481 93.219 8.69422L91.0066 10.3016C90.6562 10.5562 90.5095 11.0076 90.6434 11.4196L91.4884 14.0205C91.7878 14.9418 90.7333 15.7079 89.9496 15.1385L87.7372 13.5311C87.3867 13.2765 86.9121 13.2765 86.5616 13.5311L84.3492 15.1385C83.5655 15.7079 82.5111 14.9418 82.8104 14.0205L83.6555 11.4196C83.7893 11.0076 83.6427 10.5562 83.2922 10.3016L81.0798 8.69422C80.2961 8.12482 80.6989 6.8852 81.6676 6.8852H84.4022C84.8355 6.8852 85.2194 6.60624 85.3533 6.19422L86.1984 3.5934Z" fill="#D9D9D9"/>
</svg>
