<svg width="97" height="19" viewBox="0 0 97 19" fill="none" xmlns="http://www.w3.org/2000/svg">
<path d="M8.19836 3.41845C8.49771 2.49714 9.80112 2.49713 10.1005 3.41845L10.9455 6.01926C11.0794 6.43128 11.4634 6.71024 11.8966 6.71024H14.6312C15.6 6.71024 16.0027 7.94986 15.219 8.51926L13.0066 10.1266C12.6562 10.3813 12.5095 10.8327 12.6434 11.2447L13.4884 13.8455C13.7878 14.7668 12.7333 15.5329 11.9496 14.9635L9.7372 13.3561C9.38671 13.1015 8.91212 13.1015 8.56163 13.3561L6.34925 14.9635C5.56553 15.5329 4.51105 14.7668 4.8104 13.8455L5.65546 11.2447C5.78933 10.8327 5.64267 10.3813 5.29219 10.1266L3.07981 8.51926C2.29609 7.94986 2.69887 6.71024 3.66759 6.71024H6.40225C6.83547 6.71024 7.21943 6.43128 7.3533 6.01926L8.19836 3.41845Z" fill="#D9D9D9"/>
<path d="M27.1984 3.41845C27.4977 2.49714 28.8011 2.49713 29.1005 3.41845L29.9455 6.01926C30.0794 6.43128 30.4634 6.71024 30.8966 6.71024H33.6312C34.6 6.71024 35.0027 7.94986 34.219 8.51926L32.0066 10.1266C31.6562 10.3813 31.5095 10.8327 31.6434 11.2447L32.4884 13.8455C32.7878 14.7668 31.7333 15.5329 30.9496 14.9635L28.7372 13.3561C28.3867 13.1015 27.9121 13.1015 27.5616 13.3561L25.3492 14.9635C24.5655 15.5329 23.5111 14.7668 23.8104 13.8455L24.6555 11.2447C24.7893 10.8327 24.6427 10.3813 24.2922 10.1266L22.0798 8.51926C21.2961 7.94986 21.6989 6.71024 22.6676 6.71024H25.4022C25.8355 6.71024 26.2194 6.43128 26.3533 6.01926L27.1984 3.41845Z" fill="#D9D9D9"/>
<path d="M47.1984 3.41845C47.4977 2.49714 48.8011 2.49713 49.1005 3.41845L49.9455 6.01926C50.0794 6.43128 50.4634 6.71024 50.8966 6.71024H53.6312C54.6 6.71024 55.0027 7.94986 54.219 8.51926L52.0066 10.1266C51.6562 10.3813 51.5095 10.8327 51.6434 11.2447L52.4884 13.8455C52.7878 14.7668 51.7333 15.5329 50.9496 14.9635L48.7372 13.3561C48.3867 13.1015 47.9121 13.1015 47.5616 13.3561L45.3492 14.9635C44.5655 15.5329 43.5111 14.7668 43.8104 13.8455L44.6555 11.2447C44.7893 10.8327 44.6427 10.3813 44.2922 10.1266L42.0798 8.51926C41.2961 7.94986 41.6989 6.71024 42.6676 6.71024H45.4022C45.8355 6.71024 46.2194 6.43128 46.3533 6.01926L47.1984 3.41845Z" fill="#D9D9D9"/>
<path d="M68.1984 3.41845C68.4977 2.49714 69.8011 2.49713 70.1005 3.41845L70.9455 6.01926C71.0794 6.43128 71.4634 6.71024 71.8966 6.71024H74.6312C75.6 6.71024 76.0027 7.94986 75.219 8.51926L73.0066 10.1266C72.6562 10.3813 72.5095 10.8327 72.6434 11.2447L73.4884 13.8455C73.7878 14.7668 72.7333 15.5329 71.9496 14.9635L69.7372 13.3561C69.3867 13.1015 68.9121 13.1015 68.5616 13.3561L66.3492 14.9635C65.5655 15.5329 64.5111 14.7668 64.8104 13.8455L65.6555 11.2447C65.7893 10.8327 65.6427 10.3813 65.2922 10.1266L63.0798 8.51926C62.2961 7.94986 62.6989 6.71024 63.6676 6.71024H66.4022C66.8355 6.71024 67.2194 6.43128 67.3533 6.01926L68.1984 3.41845Z" fill="#D9D9D9"/>
<path d="M86.1984 3.41845C86.4977 2.49714 87.8011 2.49713 88.1005 3.41845L88.9455 6.01926C89.0794 6.43128 89.4634 6.71024 89.8966 6.71024H92.6312C93.6 6.71024 94.0027 7.94986 93.219 8.51926L91.0066 10.1266C90.6562 10.3813 90.5095 10.8327 90.6434 11.2447L91.4884 13.8455C91.7878 14.7668 90.7333 15.5329 89.9496 14.9635L87.7372 13.3561C87.3867 13.1015 86.9121 13.1015 86.5616 13.3561L84.3492 14.9635C83.5655 15.5329 82.5111 14.7668 82.8104 13.8455L83.6555 11.2447C83.7893 10.8327 83.6427 10.3813 83.2922 10.1266L81.0798 8.51926C80.2961 7.94986 80.6989 6.71024 81.6676 6.71024H84.4022C84.8355 6.71024 85.2194 6.43128 85.3533 6.01926L86.1984 3.41845Z" fill="#D9D9D9"/>
</svg>
