<svg width="97" height="19" viewBox="0 0 97 19" fill="none" xmlns="http://www.w3.org/2000/svg">
<path d="M8.19836 3.13704C8.49771 2.21573 9.80112 2.21573 10.1005 3.13704L10.9455 5.73786C11.0794 6.14988 11.4634 6.42884 11.8966 6.42884H14.6312C15.6 6.42884 16.0027 7.66845 15.219 8.23786L13.0066 9.84525C12.6562 10.0999 12.5095 10.5513 12.6434 10.9633L13.4884 13.5641C13.7878 14.4854 12.7333 15.2515 11.9496 14.6821L9.7372 13.0747C9.38671 12.8201 8.91212 12.8201 8.56163 13.0747L6.34925 14.6821C5.56553 15.2515 4.51105 14.4854 4.8104 13.5641L5.65546 10.9633C5.78933 10.5513 5.64267 10.0999 5.29219 9.84525L3.07981 8.23786C2.29609 7.66846 2.69887 6.42884 3.66759 6.42884H6.40225C6.83547 6.42884 7.21943 6.14988 7.3533 5.73786L8.19836 3.13704Z" fill="#FFD144"/>
<path d="M27.1984 3.13704C27.4977 2.21573 28.8011 2.21573 29.1005 3.13704L29.9455 5.73786C30.0794 6.14988 30.4634 6.42884 30.8966 6.42884H33.6312C34.6 6.42884 35.0027 7.66845 34.219 8.23786L32.0066 9.84525C31.6562 10.0999 31.5095 10.5513 31.6434 10.9633L32.4884 13.5641C32.7878 14.4854 31.7333 15.2515 30.9496 14.6821L28.7372 13.0747C28.3867 12.8201 27.9121 12.8201 27.5616 13.0747L25.3492 14.6821C24.5655 15.2515 23.5111 14.4854 23.8104 13.5641L24.6555 10.9633C24.7893 10.5513 24.6427 10.0999 24.2922 9.84525L22.0798 8.23786C21.2961 7.66846 21.6989 6.42884 22.6676 6.42884H25.4022C25.8355 6.42884 26.2194 6.14988 26.3533 5.73786L27.1984 3.13704Z" fill="#FFD144"/>
<path d="M47.1984 3.13704C47.4977 2.21573 48.8011 2.21573 49.1005 3.13704L49.9455 5.73786C50.0794 6.14988 50.4634 6.42884 50.8966 6.42884H53.6312C54.6 6.42884 55.0027 7.66845 54.219 8.23786L52.0066 9.84525C51.6562 10.0999 51.5095 10.5513 51.6434 10.9633L52.4884 13.5641C52.7878 14.4854 51.7333 15.2515 50.9496 14.6821L48.7372 13.0747C48.3867 12.8201 47.9121 12.8201 47.5616 13.0747L45.3492 14.6821C44.5655 15.2515 43.5111 14.4854 43.8104 13.5641L44.6555 10.9633C44.7893 10.5513 44.6427 10.0999 44.2922 9.84525L42.0798 8.23786C41.2961 7.66846 41.6989 6.42884 42.6676 6.42884H45.4022C45.8355 6.42884 46.2194 6.14988 46.3533 5.73786L47.1984 3.13704Z" fill="#FFD144"/>
<path d="M68.1984 3.13704C68.4977 2.21573 69.8011 2.21573 70.1005 3.13704L70.9455 5.73786C71.0794 6.14988 71.4634 6.42884 71.8966 6.42884H74.6312C75.6 6.42884 76.0027 7.66845 75.219 8.23786L73.0066 9.84525C72.6562 10.0999 72.5095 10.5513 72.6434 10.9633L73.4884 13.5641C73.7878 14.4854 72.7333 15.2515 71.9496 14.6821L69.7372 13.0747C69.3867 12.8201 68.9121 12.8201 68.5616 13.0747L66.3492 14.6821C65.5655 15.2515 64.5111 14.4854 64.8104 13.5641L65.6555 10.9633C65.7893 10.5513 65.6427 10.0999 65.2922 9.84525L63.0798 8.23786C62.2961 7.66846 62.6989 6.42884 63.6676 6.42884H66.4022C66.8355 6.42884 67.2194 6.14988 67.3533 5.73786L68.1984 3.13704Z" fill="#FFD144"/>
<path d="M86.1984 3.13704C86.4977 2.21573 87.8011 2.21573 88.1005 3.13704L88.9455 5.73786C89.0794 6.14988 89.4634 6.42884 89.8966 6.42884H92.6312C93.6 6.42884 94.0027 7.66845 93.219 8.23786L91.0066 9.84525C90.6562 10.0999 90.5095 10.5513 90.6434 10.9633L91.4884 13.5641C91.7878 14.4854 90.7333 15.2515 89.9496 14.6821L87.7372 13.0747C87.3867 12.8201 86.9121 12.8201 86.5616 13.0747L84.3492 14.6821C83.5655 15.2515 82.5111 14.4854 82.8104 13.5641L83.6555 10.9633C83.7893 10.5513 83.6427 10.0999 83.2922 9.84525L81.0798 8.23786C80.2961 7.66846 80.6989 6.42884 81.6676 6.42884H84.4022C84.8355 6.42884 85.2194 6.14988 85.3533 5.73786L86.1984 3.13704Z" fill="#FFD144"/>
</svg>
