<svg width="97" height="19" viewBox="0 0 97 19" fill="none" xmlns="http://www.w3.org/2000/svg">
<path d="M8.19836 2.96245C8.49771 2.04114 9.80112 2.04114 10.1005 2.96245L10.9455 5.56326C11.0794 5.97529 11.4634 6.25425 11.8966 6.25425H14.6312C15.6 6.25425 16.0027 7.49386 15.219 8.06327L13.0066 9.67065C12.6562 9.9253 12.5095 10.3767 12.6434 10.7887L13.4884 13.3895C13.7878 14.3108 12.7333 15.0769 11.9496 14.5075L9.7372 12.9001C9.38671 12.6455 8.91212 12.6455 8.56163 12.9001L6.34925 14.5075C5.56553 15.0769 4.51105 14.3108 4.8104 13.3895L5.65546 10.7887C5.78933 10.3767 5.64267 9.9253 5.29219 9.67065L3.07981 8.06327C2.29609 7.49386 2.69887 6.25425 3.66759 6.25425H6.40225C6.83547 6.25425 7.21943 5.97529 7.3533 5.56326L8.19836 2.96245Z" fill="#FFD144"/>
<path d="M27.1984 2.96245C27.4977 2.04114 28.8011 2.04114 29.1005 2.96245L29.9455 5.56326C30.0794 5.97529 30.4634 6.25425 30.8966 6.25425H33.6312C34.6 6.25425 35.0027 7.49386 34.219 8.06327L32.0066 9.67065C31.6562 9.9253 31.5095 10.3767 31.6434 10.7887L32.4884 13.3895C32.7878 14.3108 31.7333 15.0769 30.9496 14.5075L28.7372 12.9001C28.3867 12.6455 27.9121 12.6455 27.5616 12.9001L25.3492 14.5075C24.5655 15.0769 23.5111 14.3108 23.8104 13.3895L24.6555 10.7887C24.7893 10.3767 24.6427 9.9253 24.2922 9.67065L22.0798 8.06327C21.2961 7.49386 21.6989 6.25425 22.6676 6.25425H25.4022C25.8355 6.25425 26.2194 5.97529 26.3533 5.56326L27.1984 2.96245Z" fill="#D9D9D9"/>
<path d="M47.1984 2.96245C47.4977 2.04114 48.8011 2.04114 49.1005 2.96245L49.9455 5.56326C50.0794 5.97529 50.4634 6.25425 50.8966 6.25425H53.6312C54.6 6.25425 55.0027 7.49386 54.219 8.06327L52.0066 9.67065C51.6562 9.9253 51.5095 10.3767 51.6434 10.7887L52.4884 13.3895C52.7878 14.3108 51.7333 15.0769 50.9496 14.5075L48.7372 12.9001C48.3867 12.6455 47.9121 12.6455 47.5616 12.9001L45.3492 14.5075C44.5655 15.0769 43.5111 14.3108 43.8104 13.3895L44.6555 10.7887C44.7893 10.3767 44.6427 9.9253 44.2922 9.67065L42.0798 8.06327C41.2961 7.49386 41.6989 6.25425 42.6676 6.25425H45.4022C45.8355 6.25425 46.2194 5.97529 46.3533 5.56326L47.1984 2.96245Z" fill="#D9D9D9"/>
<path d="M68.1984 2.96245C68.4977 2.04114 69.8011 2.04114 70.1005 2.96245L70.9455 5.56326C71.0794 5.97529 71.4634 6.25425 71.8966 6.25425H74.6312C75.6 6.25425 76.0027 7.49386 75.219 8.06327L73.0066 9.67065C72.6562 9.9253 72.5095 10.3767 72.6434 10.7887L73.4884 13.3895C73.7878 14.3108 72.7333 15.0769 71.9496 14.5075L69.7372 12.9001C69.3867 12.6455 68.9121 12.6455 68.5616 12.9001L66.3492 14.5075C65.5655 15.0769 64.5111 14.3108 64.8104 13.3895L65.6555 10.7887C65.7893 10.3767 65.6427 9.9253 65.2922 9.67065L63.0798 8.06327C62.2961 7.49386 62.6989 6.25425 63.6676 6.25425H66.4022C66.8355 6.25425 67.2194 5.97529 67.3533 5.56326L68.1984 2.96245Z" fill="#D9D9D9"/>
<path d="M86.1984 2.96245C86.4977 2.04114 87.8011 2.04114 88.1005 2.96245L88.9455 5.56326C89.0794 5.97529 89.4634 6.25425 89.8966 6.25425H92.6312C93.6 6.25425 94.0027 7.49386 93.219 8.06327L91.0066 9.67065C90.6562 9.9253 90.5095 10.3767 90.6434 10.7887L91.4884 13.3895C91.7878 14.3108 90.7333 15.0769 89.9496 14.5075L87.7372 12.9001C87.3867 12.6455 86.9121 12.6455 86.5616 12.9001L84.3492 14.5075C83.5655 15.0769 82.5111 14.3108 82.8104 13.3895L83.6555 10.7887C83.7893 10.3767 83.6427 9.9253 83.2922 9.67065L81.0798 8.06327C80.2961 7.49386 80.6989 6.25425 81.6676 6.25425H84.4022C84.8355 6.25425 85.2194 5.97529 85.3533 5.56326L86.1984 2.96245Z" fill="#D9D9D9"/>
</svg>
