<svg width="97" height="19" viewBox="0 0 97 19" fill="none" xmlns="http://www.w3.org/2000/svg">
<path d="M8.19836 3.04973C8.49771 2.12842 9.80112 2.12842 10.1005 3.04973L10.9455 5.65054C11.0794 6.06257 11.4634 6.34153 11.8966 6.34153H14.6312C15.6 6.34153 16.0027 7.58114 15.219 8.15055L13.0066 9.75794C12.6562 10.0126 12.5095 10.4639 12.6434 10.876L13.4884 13.4768C13.7878 14.3981 12.7333 15.1642 11.9496 14.5948L9.7372 12.9874C9.38671 12.7328 8.91212 12.7328 8.56163 12.9874L6.34925 14.5948C5.56553 15.1642 4.51105 14.3981 4.8104 13.4768L5.65546 10.876C5.78933 10.4639 5.64267 10.0126 5.29219 9.75794L3.07981 8.15055C2.29609 7.58114 2.69887 6.34153 3.66759 6.34153H6.40225C6.83547 6.34153 7.21943 6.06257 7.3533 5.65054L8.19836 3.04973Z" fill="#FFD144"/>
<path d="M27.1984 3.04973C27.4977 2.12842 28.8011 2.12842 29.1005 3.04973L29.9455 5.65054C30.0794 6.06257 30.4634 6.34153 30.8966 6.34153H33.6312C34.6 6.34153 35.0027 7.58114 34.219 8.15055L32.0066 9.75794C31.6562 10.0126 31.5095 10.4639 31.6434 10.876L32.4884 13.4768C32.7878 14.3981 31.7333 15.1642 30.9496 14.5948L28.7372 12.9874C28.3867 12.7328 27.9121 12.7328 27.5616 12.9874L25.3492 14.5948C24.5655 15.1642 23.5111 14.3981 23.8104 13.4768L24.6555 10.876C24.7893 10.4639 24.6427 10.0126 24.2922 9.75794L22.0798 8.15055C21.2961 7.58114 21.6989 6.34153 22.6676 6.34153H25.4022C25.8355 6.34153 26.2194 6.06257 26.3533 5.65054L27.1984 3.04973Z" fill="#FFD144"/>
<path d="M47.1984 3.04973C47.4977 2.12842 48.8011 2.12842 49.1005 3.04973L49.9455 5.65054C50.0794 6.06257 50.4634 6.34153 50.8966 6.34153H53.6312C54.6 6.34153 55.0027 7.58114 54.219 8.15055L52.0066 9.75794C51.6562 10.0126 51.5095 10.4639 51.6434 10.876L52.4884 13.4768C52.7878 14.3981 51.7333 15.1642 50.9496 14.5948L48.7372 12.9874C48.3867 12.7328 47.9121 12.7328 47.5616 12.9874L45.3492 14.5948C44.5655 15.1642 43.5111 14.3981 43.8104 13.4768L44.6555 10.876C44.7893 10.4639 44.6427 10.0126 44.2922 9.75794L42.0798 8.15055C41.2961 7.58114 41.6989 6.34153 42.6676 6.34153H45.4022C45.8355 6.34153 46.2194 6.06257 46.3533 5.65054L47.1984 3.04973Z" fill="#FFD144"/>
<path d="M68.1984 3.04973C68.4977 2.12842 69.8011 2.12842 70.1005 3.04973L70.9455 5.65054C71.0794 6.06257 71.4634 6.34153 71.8966 6.34153H74.6312C75.6 6.34153 76.0027 7.58114 75.219 8.15055L73.0066 9.75794C72.6562 10.0126 72.5095 10.4639 72.6434 10.876L73.4884 13.4768C73.7878 14.3981 72.7333 15.1642 71.9496 14.5948L69.7372 12.9874C69.3867 12.7328 68.9121 12.7328 68.5616 12.9874L66.3492 14.5948C65.5655 15.1642 64.5111 14.3981 64.8104 13.4768L65.6555 10.876C65.7893 10.4639 65.6427 10.0126 65.2922 9.75794L63.0798 8.15055C62.2961 7.58114 62.6989 6.34153 63.6676 6.34153H66.4022C66.8355 6.34153 67.2194 6.06257 67.3533 5.65054L68.1984 3.04973Z" fill="#D9D9D9"/>
<path d="M86.1984 3.04973C86.4977 2.12842 87.8011 2.12842 88.1005 3.04973L88.9455 5.65054C89.0794 6.06257 89.4634 6.34153 89.8966 6.34153H92.6312C93.6 6.34153 94.0027 7.58114 93.219 8.15055L91.0066 9.75794C90.6562 10.0126 90.5095 10.4639 90.6434 10.876L91.4884 13.4768C91.7878 14.3981 90.7333 15.1642 89.9496 14.5948L87.7372 12.9874C87.3867 12.7328 86.9121 12.7328 86.5616 12.9874L84.3492 14.5948C83.5655 15.1642 82.5111 14.3981 82.8104 13.4768L83.6555 10.876C83.7893 10.4639 83.6427 10.0126 83.2922 9.75794L81.0798 8.15055C80.2961 7.58114 80.6989 6.34153 81.6676 6.34153H84.4022C84.8355 6.34153 85.2194 6.06257 85.3533 5.65054L86.1984 3.04973Z" fill="#D9D9D9"/>
</svg>
