<svg width="22" height="22" viewBox="0 0 22 22" fill="none" xmlns="http://www.w3.org/2000/svg">
<path fill-rule="evenodd" clip-rule="evenodd" d="M9.1106 2.97917H12.8896C14.5786 2.97916 15.9161 2.97915 16.9628 3.11952C18.0396 3.26394 18.9111 3.56818 19.5985 4.25387C20.5423 5.19528 20.7717 6.4917 20.844 8.21147L20.8449 8.23363C20.8513 8.38382 20.8577 8.53718 20.852 8.66635C20.846 8.80375 20.8248 9.00217 20.715 9.19817C20.6391 9.33381 20.5374 9.42757 20.4697 9.4837C20.3962 9.54455 20.3146 9.5997 20.2368 9.64877C20.0868 9.74345 19.8838 9.8568 19.6458 9.98967L19.6283 9.99944C19.2748 10.1969 19.0392 10.5719 19.0392 11C19.0392 11.4281 19.2748 11.8031 19.6283 12.0006L19.6459 12.0104C19.8838 12.1432 20.0868 12.2566 20.2368 12.3512C20.3146 12.4003 20.3962 12.4555 20.4697 12.5163C20.5374 12.5724 20.6391 12.6662 20.715 12.8018C20.8248 12.9978 20.846 13.1963 20.852 13.3337C20.8577 13.4628 20.8513 13.6162 20.8449 13.7664L20.844 13.7885C20.7717 15.5083 20.5423 16.8047 19.5985 17.7461C18.9111 18.4318 18.0396 18.7361 16.9628 18.8805C15.9161 19.0209 14.5786 19.0209 12.8896 19.0208H9.1106C7.42159 19.0209 6.08413 19.0209 5.03748 18.8805C3.96058 18.7361 3.0891 18.4318 2.4017 17.7461C1.45794 16.8047 1.22855 15.5083 1.15625 13.7885L1.15532 13.7664C1.14897 13.6162 1.1425 13.4628 1.14818 13.3337C1.15423 13.1963 1.17547 12.9978 1.28519 12.8018C1.36112 12.6662 1.4628 12.5724 1.53055 12.5163C1.60402 12.4555 1.68561 12.4003 1.76339 12.3512C1.91348 12.2566 2.11646 12.1432 2.35441 12.0103L2.3719 12.0006C2.72546 11.8031 2.96101 11.4281 2.96101 11C2.96101 10.5719 2.72546 10.1969 2.3719 9.99944L2.35439 9.98966C2.11645 9.85679 1.91347 9.74344 1.76339 9.64877C1.6856 9.5997 1.60401 9.54455 1.53055 9.48369C1.4628 9.42757 1.36112 9.33382 1.28519 9.19818C1.17547 9.00217 1.15423 8.80375 1.14818 8.66635C1.1425 8.53718 1.14897 8.38383 1.15532 8.23364C1.15563 8.22624 1.15594 8.21885 1.15625 8.21147C1.22855 6.4917 1.45794 5.19528 2.4017 4.25387C3.0891 3.56818 3.96058 3.26394 5.03748 3.11952C6.08413 2.97915 7.42159 2.97916 9.1106 2.97917ZM19.4764 13.3689C19.4764 13.3689 19.4766 13.3698 19.4768 13.3719L19.4764 13.3689ZM19.4786 13.4988C19.4785 13.5048 19.4784 13.5111 19.4782 13.5176C19.4767 13.5762 19.4738 13.6443 19.4702 13.7308C19.3987 15.4321 19.1663 16.2352 18.6275 16.7727C18.2383 17.1609 17.705 17.3936 16.78 17.5177C15.8353 17.6444 14.5902 17.6458 12.838 17.6458H9.16221C7.41004 17.6458 6.16489 17.6444 5.22024 17.5177C4.2952 17.3936 3.76197 17.1609 3.37276 16.7727C2.83396 16.2352 2.60157 15.4321 2.53004 13.7308C2.5264 13.6443 2.52356 13.5762 2.52205 13.5176C2.52188 13.5111 2.52173 13.5048 2.52161 13.4988C2.63588 13.4283 2.80001 13.3364 3.04231 13.2011C3.81217 12.7711 4.33601 11.9475 4.33601 11C4.33601 10.0525 3.81217 9.22887 3.04231 8.79895C2.8 8.66363 2.63588 8.57174 2.52161 8.50118C2.52173 8.49518 2.52188 8.48894 2.52205 8.48245C2.52356 8.42381 2.5264 8.35568 2.53004 8.26923C2.60157 6.56787 2.83396 5.76482 3.37276 5.22735C3.76197 4.83911 4.2952 4.60637 5.22024 4.48231C6.16489 4.35563 7.41004 4.35417 9.16221 4.35417H12.838C14.5902 4.35417 15.8353 4.35563 16.78 4.48231C17.705 4.60637 18.2383 4.83911 18.6275 5.22735C19.1663 5.76482 19.3987 6.56787 19.4702 8.26923C19.4738 8.35568 19.4767 8.42381 19.4782 8.48245C19.4784 8.48894 19.4785 8.49517 19.4786 8.50117C19.3643 8.57174 19.2002 8.66363 18.9579 8.79895C18.1881 9.22887 17.6642 10.0525 17.6642 11C17.6642 11.9475 18.1881 12.7711 18.9579 13.2011C19.2002 13.3364 19.3643 13.4283 19.4786 13.4988ZM19.5925 8.42483L19.5915 8.42568C19.5953 8.42214 19.5961 8.42186 19.5925 8.42483ZM19.4764 8.63114C19.4764 8.63114 19.4765 8.63006 19.4768 8.62811L19.4764 8.63114ZM2.40772 8.42483C2.40414 8.42186 2.40489 8.42214 2.40876 8.42568L2.40772 8.42483ZM2.52341 8.62811C2.52373 8.63006 2.52383 8.63114 2.52383 8.63114L2.52341 8.62811ZM2.52383 13.3689C2.52383 13.3689 2.52373 13.37 2.52341 13.3719L2.52383 13.3689ZM2.40877 13.5743C2.40489 13.5779 2.40414 13.5782 2.40772 13.5752L2.40877 13.5743ZM19.5915 13.5743L19.5925 13.5752C19.5961 13.5781 19.5953 13.5779 19.5915 13.5743ZM14.2362 7.76387C14.5047 8.03235 14.5047 8.46766 14.2362 8.73614L8.73625 14.2361C8.46777 14.5046 8.03246 14.5046 7.76398 14.2361C7.49549 13.9677 7.49549 13.5324 7.76398 13.2639L13.264 7.76387C13.5325 7.49538 13.9678 7.49538 14.2362 7.76387Z" fill="white"/>
<path d="M14.2084 13.2917C14.2084 13.7979 13.798 14.2083 13.2918 14.2083C12.7855 14.2083 12.3751 13.7979 12.3751 13.2917C12.3751 12.7854 12.7855 12.375 13.2918 12.375C13.798 12.375 14.2084 12.7854 14.2084 13.2917Z" fill="white"/>
<path d="M9.62511 8.70834C9.62511 9.2146 9.21471 9.62501 8.70845 9.62501C8.20219 9.62501 7.79178 9.2146 7.79178 8.70834C7.79178 8.20208 8.20219 7.79167 8.70845 7.79167C9.21471 7.79167 9.62511 8.20208 9.62511 8.70834Z" fill="white"/>
</svg>
