<svg width="50" height="58" viewBox="0 0 50 58" fill="none" xmlns="http://www.w3.org/2000/svg">
<g clip-path="url(#clip0_74_148)">
<path d="M21.8207 57.1821C23.5436 56.7235 24.5742 54.9333 24.1227 53.1835C23.6712 51.4337 21.9085 50.387 20.1857 50.8456C18.4628 51.3041 17.4322 53.0943 17.8837 54.8441C18.3352 56.5939 20.0979 57.6406 21.8207 57.1821Z" fill="black"/>
<path d="M39.9762 55.2785C40.6655 53.6186 39.8994 51.7055 38.265 51.0054C36.6307 50.3054 34.7469 51.0835 34.0577 52.7434C33.3684 54.4033 34.1345 56.3164 35.7689 57.0165C37.4032 57.7165 39.2869 56.9384 39.9762 55.2785Z" fill="black"/>
<path d="M47.6474 33.3307C46.9072 32.5387 46.0349 31.8809 45.0304 31.3843C44.0523 30.901 43.0214 30.6325 41.9376 30.5654H27.8879C26.553 30.5654 25.337 30.0285 24.3854 29.0217C23.447 28.0284 22.9448 26.7531 22.9448 25.3571C22.9448 23.8939 23.447 22.5918 24.3854 21.5985C25.337 20.5917 26.5398 20.0548 27.8879 20.0548H48.2289C48.718 20.0548 49.1012 19.8803 49.4713 19.5044C49.8414 19.1286 50 18.7393 50 18.2426C50 17.7459 49.8414 17.3566 49.4713 16.9808C49.1012 16.5915 48.7179 16.4304 48.2157 16.4304H27.7822C26.6323 16.4304 25.5882 16.672 24.5704 17.1553C23.5263 17.652 22.6143 18.3097 21.8477 19.1151C21.0944 19.8937 20.4864 20.8468 20.037 21.9475C19.6008 23.0348 19.3762 24.1892 19.3762 25.3839C19.3762 26.5786 19.6008 27.7062 20.037 28.7532C20.4864 29.8271 21.1076 30.7936 21.8742 31.6259C22.6275 32.4313 23.5263 33.0756 24.544 33.5454C25.5485 34.0018 26.672 34.23 27.8747 34.23H41.5015C42.8628 34.23 44.0788 34.7938 45.0304 35.8543C45.9556 36.8745 46.4446 38.1497 46.4446 39.5323C46.4446 40.9284 45.9424 42.1902 45.004 43.197C44.0523 44.2037 42.8496 44.7407 41.5015 44.7407H21.1472C21.0415 44.7407 20.949 44.7541 20.8432 44.7675H17.3804C15.7415 44.7675 14.3008 43.6399 13.8779 42.0425L6.99181 16.9942C6.78033 16.2156 6.06661 15.6653 5.27359 15.6653H1.7843C0.793021 15.6653 0 16.4841 0 17.4775C0 18.4842 0.806238 19.2896 1.7843 19.2896H3.91224L10.4414 42.9822C11.3006 46.1636 14.1554 48.3785 17.3936 48.3785H42.2813C42.5192 48.3785 42.7439 48.3382 42.9421 48.2442C43.5765 48.1234 44.1977 47.9355 44.7925 47.6402C45.8366 47.1435 46.7486 46.4857 47.5152 45.6803C48.2686 44.8883 48.8898 43.9487 49.3259 42.8882C49.7621 41.8412 49.9868 40.7002 49.9868 39.5189C49.9868 38.3108 49.7753 37.1698 49.3524 36.1093C48.9559 35.0489 48.3743 34.1227 47.6474 33.3307Z" fill="black"/>
<path d="M44.6207 5.40969C44.6207 5.40969 35.9371 14.229 35.9371 14.1753C35.8842 11.2624 37.1927 7.85278 39.7304 4.95329C42.5853 1.7048 46.2464 -0.0671094 49.3391 8.31683e-06C49.7621 3.11427 48.4668 7.02052 45.6119 10.269C43.1007 13.1417 39.9551 14.8464 37.1266 15.1686C37.1002 15.1686 37.0605 15.182 37.0341 15.182C36.9812 15.182 44.6207 5.40969 44.6207 5.40969Z" fill="#9DC45A"/>
<path d="M28.8528 8.56422C28.8528 8.56422 33.8752 15.182 33.8356 15.182C31.7209 14.9672 29.355 13.692 27.4518 11.5174C25.3238 9.07431 24.3458 6.12114 24.663 3.77202C26.9627 3.7049 29.6854 5.03383 31.8134 7.47691C33.6902 9.62468 34.6683 12.1752 34.655 14.3632C34.655 14.39 34.655 14.4169 34.655 14.4437C34.655 14.4572 28.8528 8.56422 28.8528 8.56422Z" fill="#9DC45A"/>
<path d="M29.9894 41.2908H41.7658C42.7438 41.2908 43.5369 40.4854 43.5369 39.4921C43.5369 38.4987 42.7438 37.6933 41.7658 37.6933H29.9894C29.0113 37.6933 28.2183 38.4987 28.2183 39.4921C28.2183 40.4854 29.0113 41.2908 29.9894 41.2908Z" fill="#9DC45A"/>
</g>
<defs>
<clipPath id="clip0_74_148">
<rect width="50" height="57.2917" fill="white"/>
</clipPath>
</defs>
</svg>
