<svg width="47" height="47" viewBox="0 0 47 47" fill="none" xmlns="http://www.w3.org/2000/svg">
<rect x="0.5" y="0.5" width="46" height="46" rx="4.5" fill="#9DC45A" fill-opacity="0.1" stroke="#9DC45A"/>
<path fill-rule="evenodd" clip-rule="evenodd" d="M15.7177 15.0921C16.9439 13.8012 18.9721 14.043 19.9857 15.4766L21.2467 17.2601C22.0574 18.4068 21.9889 20.0009 21.0214 21.0196L20.7765 21.2774C20.7758 21.2792 20.7751 21.2811 20.7744 21.2832C20.7614 21.3196 20.7287 21.4353 20.7609 21.6551C20.8276 22.1106 21.1793 23.0363 22.607 24.5394C24.0391 26.0472 24.9078 26.4025 25.3103 26.4679C25.484 26.4961 25.5748 26.4716 25.6038 26.4614L26.0124 26.0312C26.8862 25.1113 28.2485 24.93 29.347 25.5623L31.2575 26.662C32.8904 27.6018 33.2705 29.901 31.9655 31.2749L30.545 32.7705C30.1016 33.2373 29.497 33.6357 28.75 33.7095C26.9261 33.8895 22.701 33.655 18.2716 28.9917C14.1384 24.6402 13.3533 20.8553 13.254 19.0061L13.9201 18.9704L13.254 19.0061C13.205 18.0925 13.6122 17.3088 14.1481 16.7446L15.7177 15.0921ZM18.7609 16.3426C18.2486 15.6179 17.3281 15.5747 16.8053 16.1251L15.2357 17.7776C14.9043 18.1265 14.7304 18.5264 14.7518 18.9257C14.8329 20.4355 15.4831 23.8778 19.3592 27.9587C23.4234 32.2375 27.1676 32.3584 28.6026 32.2167C28.8864 32.1887 29.1783 32.0313 29.4574 31.7375L30.8779 30.2419C31.4907 29.5968 31.3301 28.4345 30.5092 27.962L28.5987 26.8623C28.086 26.5672 27.4854 26.6584 27.1 27.0642L26.6445 27.5437L26.1174 27.043C26.6445 27.5437 26.6438 27.5444 26.6432 27.5452L26.6417 27.5467L26.6388 27.5497L26.6324 27.5562L26.6181 27.5703C26.6078 27.5803 26.5959 27.5913 26.5825 27.603C26.5556 27.6266 26.5223 27.6535 26.4824 27.6818C26.4022 27.7387 26.2955 27.8011 26.1606 27.8544C25.8846 27.9632 25.5201 28.0216 25.0699 27.9485C24.1923 27.806 23.0422 27.1757 21.5194 25.5724C19.992 23.9644 19.4075 22.7647 19.2767 21.8726C19.2102 21.4185 19.2635 21.0549 19.3612 20.7803C19.4092 20.6453 19.4659 20.5376 19.5183 20.4559C19.5443 20.4151 19.5692 20.381 19.5912 20.3532C19.6022 20.3393 19.6125 20.327 19.6218 20.3162L19.6351 20.3013L19.6412 20.2946L19.6441 20.2915L19.6456 20.29C19.6463 20.2893 19.6469 20.2886 20.1786 20.7935L19.6469 20.2885L19.9338 19.9866C20.3793 19.5175 20.444 18.7231 20.0219 18.1261L18.7609 16.3426Z" fill="#9DC45A"/>
<path d="M24.2595 13.8801C24.3257 13.4712 24.7122 13.1938 25.1211 13.26C25.1464 13.2649 25.2279 13.2801 25.2705 13.2896C25.3559 13.3086 25.4749 13.3378 25.6233 13.3811C25.9201 13.4675 26.3347 13.6099 26.8323 13.838C27.8286 14.2948 29.1544 15.0938 30.5302 16.4696C31.906 17.8454 32.705 19.1712 33.1617 20.1675C33.3899 20.6651 33.5323 21.0797 33.6187 21.3765C33.6619 21.5249 33.6912 21.6439 33.7102 21.7293C33.7197 21.7719 33.7267 21.8062 33.7315 21.8315L33.7373 21.8627C33.8034 22.2716 33.5286 22.6741 33.1197 22.7403C32.712 22.8063 32.3279 22.5303 32.2601 22.1233C32.258 22.1124 32.2522 22.083 32.2461 22.0553C32.2337 21.9999 32.2124 21.9121 32.1786 21.796C32.1109 21.5636 31.9934 21.2183 31.7982 20.7926C31.4084 19.9423 30.7074 18.7681 29.4695 17.5303C28.2317 16.2924 27.0575 15.5914 26.2072 15.2016C25.7815 15.0064 25.4362 14.8889 25.2038 14.8212C25.0877 14.7874 24.9417 14.7539 24.8863 14.7415C24.4793 14.6737 24.1935 14.2878 24.2595 13.8801Z" fill="#9DC45A"/>
<path fill-rule="evenodd" clip-rule="evenodd" d="M24.4861 17.3296C24.5999 16.9313 25.015 16.7007 25.4133 16.8145L25.2072 17.5356C25.4133 16.8145 25.4136 16.8146 25.414 16.8147L25.4147 16.8149L25.4162 16.8153L25.4196 16.8163L25.4273 16.8186L25.4471 16.8248C25.4622 16.8296 25.481 16.8359 25.5035 16.8438C25.5484 16.8598 25.6077 16.8824 25.6805 16.9136C25.8262 16.9761 26.0253 17.0725 26.2698 17.2172C26.7593 17.5069 27.4275 17.9881 28.2124 18.773C28.9974 19.558 29.4786 20.2262 29.7683 20.7157C29.913 20.9602 30.0094 21.1592 30.0718 21.3049C30.103 21.3777 30.1257 21.4371 30.1416 21.482C30.1496 21.5044 30.1559 21.5233 30.1607 21.5383L30.1669 21.5581L30.1692 21.5659L30.1702 21.5692L30.1706 21.5708L30.1708 21.5715C30.1709 21.5718 30.171 21.5722 29.4499 21.7782L30.171 21.5722C30.2848 21.9705 30.0542 22.3856 29.6559 22.4994C29.261 22.6122 28.8496 22.3864 28.7317 21.9944L28.728 21.9836C28.7227 21.9686 28.7116 21.939 28.6931 21.8958C28.6561 21.8095 28.589 21.6682 28.4774 21.4796C28.2544 21.1029 27.8517 20.5336 27.1518 19.8337C26.4518 19.1337 25.8826 18.731 25.5058 18.5081C25.3172 18.3964 25.176 18.3293 25.0897 18.2923C25.0465 18.2738 25.0169 18.2628 25.0019 18.2575L24.9911 18.2538C24.599 18.1359 24.3733 17.7244 24.4861 17.3296Z" fill="#9DC45A"/>
</svg>
