<svg width="22" height="22" viewBox="0 0 22 22" fill="none" xmlns="http://www.w3.org/2000/svg">
<path d="M17.4168 11C17.4168 11.5063 17.0064 11.9167 16.5002 11.9167C15.9939 11.9167 15.5835 11.5063 15.5835 11C15.5835 10.4937 15.9939 10.0833 16.5002 10.0833C17.0064 10.0833 17.4168 10.4937 17.4168 11Z" fill="black"/>
<path fill-rule="evenodd" clip-rule="evenodd" d="M9.11511 2.97917H11.9685C13.6532 2.97915 14.9875 2.97914 16.0318 3.11954C17.1065 3.26403 17.9764 3.56847 18.6624 4.25447C19.5097 5.10183 19.7797 6.23666 19.8778 7.70924C20.4069 7.94209 20.8065 8.43453 20.8505 9.05831C20.8544 9.11349 20.8544 9.17296 20.8543 9.22809C20.8543 9.23312 20.8543 9.23811 20.8543 9.24306V12.7569C20.8543 12.7619 20.8543 12.7669 20.8543 12.7719C20.8544 12.827 20.8544 12.8865 20.8505 12.9417C20.8065 13.5655 20.4069 14.0579 19.8778 14.2908C19.7797 15.7633 19.5097 16.8982 18.6624 17.7455C17.9764 18.4315 17.1065 18.736 16.0318 18.8805C14.9875 19.0209 13.6532 19.0208 11.9685 19.0208H9.11512C7.43051 19.0208 6.09617 19.0209 5.05189 18.8805C3.97717 18.736 3.1073 18.4315 2.4213 17.7455C1.7353 17.0595 1.43086 16.1897 1.28637 15.1149C1.14597 14.0707 1.14598 12.7363 1.146 11.0517V10.9483C1.14598 9.26367 1.14597 7.92934 1.28637 6.88506C1.43086 5.81034 1.7353 4.94047 2.4213 4.25447C3.1073 3.56847 3.97717 3.26403 5.05189 3.11954C6.09617 2.97914 7.4305 2.97915 9.11511 2.97917ZM18.4874 14.4375H16.7117C14.7453 14.4375 13.0627 12.9456 13.0627 11C13.0627 9.05443 14.7453 7.5625 16.7117 7.5625H18.4874C18.3831 6.33283 18.1471 5.68373 17.6901 5.22674C17.3021 4.8388 16.7708 4.60627 15.8486 4.48228C14.9065 4.35563 13.6647 4.35417 11.9168 4.35417H9.16683C7.41891 4.35417 6.17713 4.35563 5.23511 4.48228C4.31286 4.60627 3.78152 4.8388 3.39357 5.22674C3.00563 5.61469 2.7731 6.14603 2.64911 7.06828C2.52246 8.0103 2.521 9.25208 2.521 11C2.521 12.7479 2.52246 13.9897 2.64911 14.9317C2.7731 15.854 3.00563 16.3853 3.39357 16.7733C3.78152 17.1612 4.31286 17.3937 5.23511 17.5177C6.17713 17.6444 7.41891 17.6458 9.16683 17.6458H11.9168C13.6647 17.6458 14.9065 17.6444 15.8486 17.5177C16.7708 17.3937 17.3021 17.1612 17.6901 16.7733C18.1471 16.3163 18.3831 15.6672 18.4874 14.4375ZM4.81266 7.33333C4.81266 6.95364 5.12047 6.64583 5.50016 6.64583H9.16683C9.54653 6.64583 9.85433 6.95364 9.85433 7.33333C9.85433 7.71303 9.54653 8.02083 9.16683 8.02083H5.50016C5.12047 8.02083 4.81266 7.71303 4.81266 7.33333ZM19.1801 8.93771C19.1614 8.93751 19.137 8.9375 19.0974 8.9375H16.7117C15.4069 8.9375 14.4377 9.90801 14.4377 11C14.4377 12.092 15.4069 13.0625 16.7117 13.0625H19.0974C19.137 13.0625 19.1614 13.0625 19.1801 13.0623C19.1915 13.0622 19.1975 13.062 19.2004 13.0619L19.2024 13.0618C19.3914 13.0503 19.4727 12.9228 19.4788 12.8461C19.4788 12.8461 19.479 12.8403 19.4791 12.832C19.4793 12.8158 19.4793 12.7941 19.4793 12.7569V9.24306C19.4793 9.20592 19.4793 9.18424 19.4791 9.16797C19.479 9.15968 19.4788 9.15392 19.4788 9.15392C19.4727 9.07722 19.3914 8.94969 19.2024 8.93819C19.2024 8.93819 19.1979 8.9379 19.1801 8.93771Z" fill="black"/>
</svg>
