<svg width="66" height="75" viewBox="0 0 66 75" fill="none" xmlns="http://www.w3.org/2000/svg">
<g clip-path="url(#clip0_74_139)">
<path d="M28.8033 74.8565C31.0774 74.2562 32.4379 71.9126 31.8419 69.622C31.2459 67.3314 28.9192 65.9612 26.645 66.5615C24.3709 67.1618 23.0104 69.5053 23.6064 71.7959C24.2024 74.0865 26.5291 75.4568 28.8033 74.8565Z" fill="black"/>
<path d="M52.7686 72.3646C53.6785 70.1916 52.6672 67.6872 50.5098 66.7707C48.3524 65.8543 45.8659 66.8729 44.9561 69.0458C44.0462 71.2188 45.0575 73.7233 47.2149 74.6397C49.3722 75.5562 51.8587 74.5376 52.7686 72.3646Z" fill="black"/>
<path d="M62.8945 43.6329C61.9175 42.5961 60.7661 41.735 59.4401 41.0848C58.1491 40.4522 56.7883 40.1007 55.3577 40.0129H36.8121C35.05 40.0129 33.4449 39.31 32.1887 37.992C30.95 36.6917 30.2871 35.0223 30.2871 33.1947C30.2871 31.2793 30.95 29.5747 32.1887 28.2744C33.4449 26.9564 35.0325 26.2535 36.8121 26.2535H63.6622C64.3077 26.2535 64.8136 26.0251 65.3021 25.533C65.7906 25.041 66 24.5314 66 23.8812C66 23.231 65.7906 22.7214 65.3021 22.2294C64.8136 21.7198 64.3077 21.5089 63.6447 21.5089H36.6725C35.1546 21.5089 33.7764 21.8252 32.433 22.4578C31.0547 23.108 29.8509 23.9691 28.839 25.0234C27.8446 26.0426 27.042 27.2903 26.4489 28.7313C25.8731 30.1546 25.5765 31.6659 25.5765 33.2299C25.5765 34.7938 25.8731 36.2699 26.4489 37.6406C27.042 39.0464 27.862 40.3116 28.8739 41.4011C29.8684 42.4555 31.0547 43.299 32.3981 43.914C33.724 44.5115 35.207 44.8102 36.7946 44.8102H54.7819C56.5789 44.8102 58.184 45.5483 59.4401 46.9365C60.6614 48.272 61.3069 49.9414 61.3069 51.7514C61.3069 53.579 60.6439 55.2308 59.4052 56.5487C58.1491 57.8667 56.5615 58.5696 54.7819 58.5696H27.9144C27.7748 58.5696 27.6527 58.5872 27.5131 58.6047H22.9421C20.7787 58.6047 18.8771 57.1286 18.3188 55.0375L9.22918 22.247C8.95004 21.2277 8.00793 20.5073 6.96114 20.5073H2.35527C1.04679 20.5073 0 21.5792 0 22.8796C0 24.1975 1.06423 25.2519 2.35527 25.2519H5.16416L13.7827 56.2676C14.9167 60.4323 18.6852 63.3318 22.9596 63.3318H55.8113C56.1253 63.3318 56.4219 63.2791 56.6836 63.156C57.521 62.9979 58.341 62.7519 59.1261 62.3653C60.5044 61.7151 61.7082 60.854 62.7201 59.7997C63.7145 58.7629 64.5345 57.5328 65.1102 56.1446C65.686 54.7739 65.9826 53.2802 65.9826 51.7338C65.9826 50.1523 65.7034 48.6586 65.1451 47.2704C64.6217 45.8821 63.8541 44.6696 62.8945 43.6329Z" fill="black"/>
<path d="M58.8993 7.08177C58.8993 7.08177 47.437 18.627 47.437 18.5567C47.3672 14.7434 49.0944 10.28 52.4441 6.4843C56.2125 2.23173 61.0452 -0.0878623 65.1277 8.30507e-07C65.686 4.07685 63.9762 9.19049 60.2078 13.4431C56.893 17.2036 52.7407 19.4353 49.0072 19.8571C48.9723 19.8571 48.9199 19.8746 48.885 19.8746C48.8152 19.8746 58.8993 7.08177 58.8993 7.08177Z" fill="white"/>
<path d="M38.0856 11.2113C38.0856 11.2113 44.7153 19.8746 44.663 19.8746C41.8715 19.5935 38.7486 17.9241 36.2363 15.0773C33.4274 11.8791 32.1364 8.01312 32.5551 4.93791C35.5908 4.85005 39.1848 6.58974 41.9936 9.78796C44.471 12.5996 45.7621 15.9384 45.7446 18.8027C45.7446 18.8379 45.7446 18.873 45.7446 18.9082C45.7446 18.9257 38.0856 11.2113 38.0856 11.2113Z" fill="white"/>
<path d="M39.5861 54.0534H55.1309C56.4219 54.0534 57.4687 52.9991 57.4687 51.6987C57.4687 50.3983 56.4219 49.344 55.1309 49.344H39.5861C38.295 49.344 37.2482 50.3983 37.2482 51.6987C37.2482 52.9991 38.295 54.0534 39.5861 54.0534Z" fill="white"/>
</g>
<defs>
<clipPath id="clip0_74_139">
<rect width="66" height="75" fill="white"/>
</clipPath>
</defs>
</svg>
